<?xml version="1.0" standalone="no"?>
<!DOCTYPE svg PUBLIC "-//W3C//DTD SVG 20010904//EN"
 "http://www.w3.org/TR/2001/REC-SVG-20010904/DTD/svg10.dtd">
<svg version="1.0" xmlns="http://www.w3.org/2000/svg"
 width="595.000000pt" height="595.000000pt" viewBox="0 0 595.000000 595.000000"
 preserveAspectRatio="xMidYMid meet">
<metadata>
Created by potrace 1.11, written by Peter Selinger 2001-2013
</metadata>
<g transform="translate(0.000000,595.000000) scale(0.100000,-0.100000)"
fill="#000000" stroke="none">
<path d="M1434 5382 c-43 -75 -83 -144 -89 -154 -5 -10 -52 -91 -104 -181 -52
-89 -103 -178 -114 -197 -10 -19 -23 -39 -27 -45 -4 -5 -18 -30 -32 -55 -14
-25 -59 -103 -100 -175 -118 -204 -267 -462 -323 -560 -29 -49 -103 -178 -165
-285 -62 -107 -120 -208 -130 -225 -9 -16 -78 -137 -154 -267 -75 -131 -139
-244 -142 -252 -3 -8 26 -68 64 -133 38 -65 79 -134 89 -153 11 -19 103 -179
205 -355 101 -176 197 -342 212 -370 16 -27 37 -62 47 -77 11 -14 19 -28 19
-31 0 -3 27 -51 60 -107 33 -56 60 -104 60 -106 0 -2 11 -21 24 -42 23 -35
396 -680 420 -725 6 -12 67 -118 135 -235 l123 -212 1467 0 1467 0 48 82 c26
46 56 97 65 113 10 17 123 212 252 435 128 223 264 459 302 525 39 66 87 150
108 187 21 37 47 82 58 100 10 18 85 148 166 288 81 140 156 270 166 288 11
17 27 47 38 65 24 40 108 186 196 339 l67 118 -48 82 c-26 46 -64 110 -84 143
-20 33 -43 74 -52 90 -8 17 -97 172 -198 345 -178 307 -200 344 -239 413 -10
18 -87 152 -171 298 -84 145 -161 279 -171 297 -45 77 -66 113 -239 412 -101
173 -193 333 -205 355 -12 22 -30 54 -41 72 l-18 31 -1466 0 -1467 0 -79 -136z"/>
</g>
</svg>
