<?xml version="1.0" encoding="UTF-8" standalone="no"?>
<!-- Generator: Adobe Illustrator 14.0.0, SVG Export Plug-In . SVG Version: 6.00 Build 43363)  -->

<svg
   xmlns:dc="http://purl.org/dc/elements/1.1/"
   xmlns:cc="http://creativecommons.org/ns#"
   xmlns:rdf="http://www.w3.org/1999/02/22-rdf-syntax-ns#"
   xmlns:svg="http://www.w3.org/2000/svg"
   xmlns="http://www.w3.org/2000/svg"
   xmlns:sodipodi="http://sodipodi.sourceforge.net/DTD/sodipodi-0.dtd"
   xmlns:inkscape="http://www.inkscape.org/namespaces/inkscape"
   version="1.1"
   id="Ebene_1"
   x="0px"
   y="0px"
   width="1000"
   height="250"
   viewBox="0 0 1000.0001 249.99998"
   enable-background="new 0 0 595.28 841.89"
   xml:space="preserve"
   inkscape:version="0.48.4 r9939"
   sodipodi:docname="logo_sp_foss4g_1000_250.svg"
   inkscape:export-filename="/home/hdus/SP/FOSS4G/2016/logo_sp_foss4g_1000_250.png"
   inkscape:export-xdpi="90"
   inkscape:export-ydpi="90"><metadata
     id="metadata65"><rdf:RDF><cc:Work
         rdf:about=""><dc:format>image/svg+xml</dc:format><dc:type
           rdf:resource="http://purl.org/dc/dcmitype/StillImage" /><dc:title></dc:title></cc:Work></rdf:RDF></metadata><defs
     id="defs63" /><sodipodi:namedview
     pagecolor="#ffffff"
     bordercolor="#666666"
     borderopacity="1"
     objecttolerance="10"
     gridtolerance="10"
     guidetolerance="10"
     inkscape:pageopacity="0"
     inkscape:pageshadow="2"
     inkscape:window-width="1280"
     inkscape:window-height="1000"
     id="namedview61"
     showgrid="false"
     inkscape:zoom="0.6622005"
     inkscape:cx="520.5542"
     inkscape:cy="215.21493"
     inkscape:window-x="0"
     inkscape:window-y="24"
     inkscape:window-maximized="1"
     inkscape:current-layer="Ebene_1"
     fit-margin-top="20"
     fit-margin-left="20"
     fit-margin-right="20"
     fit-margin-bottom="20"
     width="131.1px"
     showguides="true"
     inkscape:guide-bbox="true"><sodipodi:guide
       orientation="0,1"
       position="-16.611283,-111.74863"
       id="guide3136" /></sodipodi:namedview><g
     id="g3158"
     transform="translate(2.1138083,-52.831779)"><g
       transform="translate(3.0201703,10.570818)"
       id="g3138"><g
         transform="matrix(1.6167103,0,0,1.6167103,-21.991389,-239.33656)"
         id="g3058"><g
           id="g3569"
           transform="matrix(2.0844324,0,0,2.0844324,-204.23049,-289.59554)"
           inkscape:export-filename="/home/hdus/SP/FOSS4G/2016/image3475.png"
           inkscape:export-xdpi="162.84573"
           inkscape:export-ydpi="162.84573"><g
             transform="translate(-150.57292,-3.2173701)"
             id="g3015"><path
               d="m 382.21506,291.69303 v -7.15172 c -0.70078,1.19655 -2.39309,1.87286 -3.8222,1.87286 -1.53318,0 -2.75723,-0.52024 -3.61715,-1.32813 -1.32507,-1.27611 -2.0014,-3.354 -2.0014,-5.61855 0,-2.18501 0.64878,-4.18637 1.90038,-5.46251 0.85687,-0.88439 2.10545,-1.42908 3.71817,-1.42908 1.48116,0 3.17343,0.7283 3.92625,2.05337 l 0.15601,-1.71677 h 1.95243 v 18.77747 h -2.21256 z m -1.32508,-16.38437 c -0.52023,-0.46824 -1.17204,-0.85688 -2.13298,-0.85688 -2.93777,0 -3.71814,2.62568 -3.71814,5.04631 0,2.41756 0.78037,5.04322 3.71814,5.04322 0.96094,0 1.61275,-0.38865 2.13298,-0.85683 1.09252,-0.96093 1.45669,-2.54918 1.45669,-4.18639 0,-1.64031 -0.36417,-3.22853 -1.45669,-4.18943 z"
               id="path31"
               inkscape:connector-curvature="0" /><path
               d="m 399.38286,290.65562 c -1.27306,1.24854 -3.46111,1.53316 -5.30642,1.53316 -1.73819,0 -3.71817,-0.26012 -4.9912,-1.53316 -0.54776,-0.54779 -0.93643,-1.3006 -0.93643,-2.34106 0,-1.37711 0.83239,-2.3931 1.87285,-2.91334 -0.88438,-0.33661 -1.53316,-1.19653 -1.53316,-2.21251 0,-1.16903 0.7528,-2.08096 1.74125,-2.54916 -0.9609,-0.85991 -1.50867,-2.16052 -1.50867,-3.40909 0,-1.42912 0.49573,-2.42063 1.24856,-3.19793 0.90889,-0.93642 2.15744,-1.48114 3.90176,-1.48114 1.24552,0 2.20947,0.28766 3.01432,0.78037 0.44374,-1.169 1.45973,-1.84838 2.7083,-1.84838 0.20506,0 0.4437,0.0275 0.64875,0.0519 v 1.79328 c -0.12857,-0.0244 -0.31521,-0.0244 -0.49271,-0.0244 -0.85993,0 -1.48112,0.46819 -1.61272,1.19653 0.54779,0.7008 0.85992,1.56071 0.85992,2.72972 0,1.24855 -0.47128,2.34107 -1.1996,3.14588 -0.85687,0.93642 -2.18499,1.56071 -3.92626,1.56071 -0.88438,0 -1.37707,-0.0765 -2.21252,-0.36416 -0.49575,0.156 -1.06803,0.54777 -1.11699,1.169 -0.0796,1.14454 1.1445,1.2761 1.97691,1.30058 0.85993,0.0244 2.60116,0 2.60116,0 1.56379,0 3.30503,0.31216 4.34551,1.37711 0.62428,0.62428 1.04048,1.48115 1.04048,2.57364 -0.006,1.15065 -0.49882,2.03505 -1.12309,2.66238 z m -5.17483,-4.73416 h -2.39307 c -0.88441,0.2846 -1.66476,1.06804 -1.66476,2.08096 0,0.59978 0.20805,1.04045 0.5447,1.38015 0.85992,0.85685 2.36555,0.90887 3.51006,0.90887 1.11701,0 2.75417,-0.10426 3.58964,-0.93642 0.33663,-0.33969 0.54778,-0.78035 0.54778,-1.3526 0,-2.23701 -2.4696,-2.08096 -4.13435,-2.08096 z m -0.36414,-11.57677 c -1.79332,0 -2.98984,1.22102 -2.98984,2.88577 0,1.66476 1.11697,2.93781 2.98984,2.93781 1.79326,0 2.99286,-1.27612 2.99286,-2.93781 0,-1.66169 -1.12002,-2.88577 -2.99286,-2.88577 z"
               id="path33"
               inkscape:connector-curvature="0" /><path
               d="m 403.15608,269.87371 v -2.60119 h 2.57672 v 2.60119 h -2.57672 z m 0.15319,16.17627 v -13.16196 h 2.26454 v 13.16196 h -2.26454 z"
               id="path35"
               inkscape:connector-curvature="0" /><path
               d="m 419.12426,284.90548 c -1.01289,1.04047 -2.57363,1.48113 -4.2904,1.48113 -1.63722,0 -3.14282,-0.38865 -4.26591,-1.48113 -0.80485,-0.78038 -1.27613,-1.9004 -1.27613,-3.01736 h 2.21254 c 0.0275,0.90886 0.44372,1.58825 1.068,2.05338 0.59982,0.44375 1.53317,0.59676 2.36557,0.59676 0.91192,0 1.74122,-0.15619 2.41755,-0.72833 0.36415,-0.28463 0.65183,-0.83238 0.65183,-1.42915 0,-0.98841 -0.7008,-1.69228 -2.05646,-1.87284 -0.57227,-0.0765 -2.05341,-0.2601 -2.96536,-0.38864 -1.9769,-0.31216 -3.22239,-1.53317 -3.22239,-3.53761 0,-1.01598 0.48961,-1.9769 1.08941,-2.57361 0.85689,-0.88441 2.23702,-1.45669 3.8773,-1.45669 1.7382,0 3.30198,0.54779 4.18638,1.66477 0.57226,0.70078 0.93643,1.45665 0.93643,2.52467 h -2.21257 c -0.0244,-0.67631 -0.36414,-1.30059 -0.75277,-1.64027 -0.54779,-0.49577 -1.27308,-0.70079 -2.15747,-0.70079 -0.52025,0 -0.91194,0 -1.53621,0.26012 -0.82933,0.33662 -1.32816,1.04046 -1.32816,1.76881 0,1.09247 0.67631,1.56069 1.7688,1.71676 0.72836,0.10426 1.76883,0.20809 3.17347,0.44375 1.86978,0.31214 3.35398,1.66474 3.35398,3.64163 0.002,1.14146 -0.41007,2.02587 -1.03743,2.67464 z"
               id="path37"
               inkscape:connector-curvature="0" /><path
               d="m 432.65043,284.95751 c -0.93644,0.90886 -2.185,1.4291 -3.7947,1.4291 -2.36551,0 -3.87727,-1.09248 -4.81062,-2.4696 -0.70389,-1.04046 -1.09252,-2.47265 -1.09252,-4.44952 0,-1.97692 0.38863,-3.40603 1.09252,-4.44649 0.93643,-1.38016 2.41755,-2.47265 4.7831,-2.47265 1.56071,0 2.8368,0.52021 3.7457,1.40464 0.8844,0.85684 1.4597,1.95243 1.56071,3.38151 h -2.23397 c -0.10394,-0.90887 -0.4437,-1.56069 -0.93947,-2.05338 -0.52024,-0.49577 -1.27306,-0.80789 -2.12993,-0.80789 -1.01291,0 -1.71984,0.36416 -2.289,0.85991 -1.0405,0.8844 -1.32814,2.52162 -1.32814,4.13435 0,1.61271 0.28764,3.24992 1.32814,4.1374 0.57225,0.49573 1.27609,0.85684 2.289,0.85684 0.91196,0 1.71985,-0.33663 2.23702,-0.8844 0.46516,-0.49265 0.77729,-1.09247 0.88137,-1.94936 h 2.237 c -0.10415,1.40464 -0.65182,2.47265 -1.53621,3.32954 z"
               id="path39"
               inkscape:connector-curvature="0" /><path
               d="m 440.48149,286.20606 c -1.92488,0 -2.75417,-1.14454 -2.75417,-3.22547 v -15.70807 h 2.21251 v 15.57955 c 0,0.8844 0.28765,1.35262 1.19653,1.35262 0.72835,0 0.90892,-0.0244 0.90892,-0.0244 v 1.87285 c -0.002,-0.002 -0.49883,0.15302 -1.56379,0.15302 z"
               id="path41"
               inkscape:connector-curvature="0" /><path
               d="m 454.05353,284.85343 c -0.9609,0.93644 -2.31351,1.53318 -3.98133,1.53318 -1.66169,0 -3.01429,-0.59674 -3.97828,-1.53318 -1.43215,-1.40461 -1.87284,-3.30195 -1.87284,-5.38289 0,-2.08094 0.44371,-3.97826 1.87284,-5.38292 0.96091,-0.93643 2.31659,-1.53317 3.97828,-1.53317 1.66782,0 3.01737,0.59674 3.98133,1.53317 1.43218,1.40466 1.87285,3.30502 1.87285,5.38292 0.002,2.08094 -0.44067,3.97828 -1.87285,5.38289 z m -1.61272,-9.46828 c -0.54472,-0.54473 -1.32509,-0.93642 -2.36555,-0.93642 -1.04048,0 -1.81777,0.38866 -2.36554,0.93642 -0.93335,0.96091 -1.21798,2.54916 -1.21798,4.08234 0,1.53317 0.28767,3.1214 1.21798,4.08231 0.55085,0.54779 1.32814,0.93642 2.36554,0.93642 1.04354,0 1.82389,-0.38863 2.36555,-0.93642 0.93949,-0.96091 1.22407,-2.54914 1.22407,-4.08231 0,-1.53318 -0.28458,-3.11837 -1.22407,-4.08234 z"
               id="path43"
               inkscape:connector-curvature="0" /><path
               d="m 468.13052,286.04998 -0.18659,-2.00137 c -0.67631,1.50871 -2.36556,2.31352 -3.89872,2.31352 -2.9929,0 -4.49849,-1.79326 -4.49849,-4.83818 v -8.63593 h 2.20946 v 8.3238 c 0,1.97689 0.72526,3.14892 2.80927,3.14892 0.8844,0 1.60966,-0.38864 2.18501,-0.98844 0.82929,-0.85686 1.09248,-2.28904 1.09248,-3.64166 v -6.83958 h 2.21253 v 13.16199 h -1.92488 z"
               id="path45"
               inkscape:connector-curvature="0" /><path
               d="m 483.57845,286.04998 -0.15602,-1.71676 c -0.7559,1.32813 -2.44512,2.05339 -3.92626,2.05339 -1.61273,0 -2.8613,-0.5447 -3.72124,-1.4291 -1.24854,-1.27613 -1.89733,-3.27751 -1.89733,-5.46249 0,-2.26456 0.67632,-4.34242 2.00139,-5.61856 0.85687,-0.8079 2.08402,-1.32811 3.61718,-1.32811 1.43217,0 3.1214,0.67629 3.82218,1.87285 v -7.15172 h 2.21257 v 18.77747 h -1.95243 z m -1.58824,-10.76582 c -0.52027,-0.46821 -1.17206,-0.8599 -2.13295,-0.8599 -2.93783,0 -3.71817,2.62564 -3.71817,5.04628 0,2.42062 0.78034,5.04629 3.71817,5.04629 0.96089,0 1.61268,-0.38866 2.13295,-0.85686 1.0925,-0.96093 1.45972,-2.54915 1.45972,-4.18943 0,-1.63722 -0.36418,-3.22546 -1.45972,-4.18638 z"
               id="path47"
               inkscape:connector-curvature="0" /><path
               d="m 490.24051,286.04998 v -3.09386 h 3.06939 v 3.09386 h -3.06939 z"
               id="path49"
               inkscape:connector-curvature="0" /><path
               d="m 506.30969,284.95751 c -0.93641,0.90886 -2.185,1.4291 -3.79768,1.4291 -2.36555,0 -3.87425,-1.09248 -4.81068,-2.4696 -0.70079,-1.04046 -1.08943,-2.47265 -1.08943,-4.44952 0,-1.97692 0.3917,-3.40603 1.08943,-4.44649 0.93948,-1.38016 2.42062,-2.47265 4.78619,-2.47265 1.56066,0 2.83375,0.52021 3.74568,1.40464 0.8844,0.85684 1.45666,1.95243 1.56378,3.38151 h -2.23702 c -0.10426,-0.90887 -0.44372,-1.56069 -0.93642,-2.05338 -0.52024,-0.49577 -1.27613,-0.80789 -2.13297,-0.80789 -1.01602,0 -1.71679,0.36416 -2.28905,0.85991 -1.04047,0.8844 -1.32811,2.52162 -1.32811,4.13435 0,1.61271 0.28764,3.24992 1.32811,4.1374 0.57532,0.49573 1.27303,0.85684 2.28905,0.85684 0.90886,0 1.71678,-0.33663 2.23395,-0.8844 0.46821,-0.49265 0.78342,-1.09247 0.88439,-1.94936 h 2.23396 c -0.10426,1.40464 -0.64877,2.47265 -1.53318,3.32954 z"
               id="path51"
               inkscape:connector-curvature="0" /><path
               d="m 520.27651,284.85343 c -0.9609,0.93644 -2.31657,1.53318 -3.97827,1.53318 -1.66782,0 -3.01737,-0.59674 -3.98133,-1.53318 -1.42913,-1.40461 -1.86979,-3.30195 -1.86979,-5.38289 0,-2.08094 0.44371,-3.97826 1.86979,-5.38292 0.96091,-0.93643 2.31351,-1.53317 3.98133,-1.53317 1.6617,0 3.01432,0.59674 3.97827,1.53317 1.4322,1.40466 1.87285,3.30502 1.87285,5.38292 0,2.08094 -0.44065,3.97828 -1.87285,5.38289 z m -1.60968,-9.46828 c -0.54777,-0.54473 -1.32811,-0.93642 -2.36553,-0.93642 -1.03743,0 -1.82391,0.38866 -2.36555,0.93642 -0.93949,0.96091 -1.22409,2.54916 -1.22409,4.08234 0,1.53317 0.28766,3.1214 1.22409,4.08231 0.54471,0.54779 1.32812,0.93642 2.36555,0.93642 1.03742,0 1.82082,-0.38863 2.36553,-0.93642 0.93644,-0.96091 1.21799,-2.54914 1.21799,-4.08231 0,-1.53318 -0.28464,-3.11837 -1.21799,-4.08234 z"
               id="path53"
               inkscape:connector-curvature="0" /><path
               d="m 541.97034,286.04998 v -8.3758 c 0,-1.84833 -0.59673,-3.12141 -2.67766,-3.12141 -0.82934,0 -1.48116,0.33971 -2.00139,0.88443 -0.88439,0.90886 -1.11699,2.23698 -1.11699,3.61716 v 6.99562 h -2.21252 v -8.3758 c 0,-1.84833 -0.54776,-3.12141 -2.65319,-3.12141 -0.93949,0 -1.6923,0.46823 -2.23396,1.17204 -0.65182,0.83241 -0.88442,2.23705 -0.88442,3.32955 v 6.99562 h -2.21254 v -13.16196 h 1.92488 l 0.20806,1.87288 c 0.7008,-1.48119 2.21256,-2.21255 3.69371,-2.21255 1.94934,0 3.35397,0.88438 3.92624,2.49711 0.70078,-1.6372 2.39004,-2.49711 4.05477,-2.49711 2.9929,0 4.39754,1.92488 4.39754,4.83817 v 8.66043 h -2.21255 z"
               id="path55"
               inkscape:connector-curvature="0" /></g></g></g><g
         id="g57"
         transform="matrix(5.2197796,0,0,5.2197796,-1647.2583,-2363.0219)"><path
           d="m 377.88153,495.59818 h 2.318 c 2.597,0 4.638,2.04 4.638,4.637 v 2.318 c 0,2.505 -2.041,4.638 -4.638,4.638 h -2.318 c -2.504,0 -4.638,-2.133 -4.638,-4.638 v -2.318 c 0,-2.597 -2.041,-4.637 -4.638,-4.637 h -2.319 c -2.503,0 -4.636,2.04 -4.636,4.637 v 2.318 c 0,2.505 -2.041,4.638 -4.638,4.638 h -2.319 c -2.505,0 -4.638,-2.133 -4.638,-4.638 v -2.318 c 0,-2.597 2.133,-4.637 4.638,-4.637 h 2.319 c 2.597,0 4.638,-2.134 4.638,-4.638 v -2.319 c 0,-2.597 2.133,-4.637 4.636,-4.637 h 2.319 c 2.597,0 4.638,2.04 4.638,4.637 v 2.319 c 0,2.504 2.134,4.638 4.638,4.638 z"
           id="path59"
           inkscape:connector-curvature="0"
           style="fill:#1586c4" /></g></g><text
       sodipodi:linespacing="125%"
       id="text3014"
       y="135.8528"
       x="13.590665"
       style="font-size:82.51318359px;font-style:normal;font-variant:normal;font-weight:normal;font-stretch:normal;line-height:125%;letter-spacing:0px;word-spacing:0px;fill:#333333;fill-opacity:1;stroke:none;font-family:Saved By Zero;-inkscape-font-specification:Saved By Zero"
       xml:space="preserve"><tspan
         style="font-size:128.92684937px;fill:#000000"
         y="135.8528"
         x="13.590665"
         id="tspan3016"
         sodipodi:role="line">SOURCePOLe</tspan></text>
</g></svg>