<?xml version="1.0" encoding="utf-8"?>
<!-- Generator: Adobe Illustrator 21.1.0, SVG Export Plug-In . SVG Version: 6.00 Build 0)  -->
<svg version="1.1" id="Layer_1" xmlns="http://www.w3.org/2000/svg" xmlns:xlink="http://www.w3.org/1999/xlink" x="0px" y="0px"
	 viewBox="0 0 15.6 26.7" style="enable-background:new 0 0 15.6 26.7;" xml:space="preserve">
<style type="text/css">
	.st0{fill:#00393F;}
</style>
<path class="st0" d="M15.6,13.4c0-0.2-0.1-0.5-0.3-0.6L2.8,0.3C2.7,0.1,2.4,0,2.2,0C2,0,1.8,0.1,1.6,0.3L0.3,1.6C0.1,1.8,0,2,0,2.2
	c0,0.2,0.1,0.5,0.3,0.6l10.5,10.5L0.3,23.9C0.1,24,0,24.3,0,24.5c0,0.2,0.1,0.5,0.3,0.6l1.3,1.3c0.2,0.2,0.4,0.3,0.6,0.3
	c0.2,0,0.5-0.1,0.6-0.3L15.3,14C15.5,13.8,15.6,13.6,15.6,13.4z"/>
</svg>
