<?xml version="1.0" encoding="UTF-8"?>
<!DOCTYPE svg PUBLIC "-//W3C//DTD SVG 1.1//EN" "http://www.w3.org/Graphics/SVG/1.1/DTD/svg11.dtd">
<!-- Creator: CorelDRAW X6 -->
<svg xmlns="http://www.w3.org/2000/svg" xml:space="preserve" width="11.6929in" height="16.5354in" version="1.1" style="shape-rendering:geometricPrecision; text-rendering:geometricPrecision; image-rendering:optimizeQuality; fill-rule:evenodd; clip-rule:evenodd"
viewBox="0 0 11693 16535"
 xmlns:xlink="http://www.w3.org/1999/xlink">
 <defs>
  <style type="text/css">
   <![CDATA[
    .fil2 {fill:#201E1E}
    .fil3 {fill:#FEFEFE}
    .fil1 {fill:black}
    .fil0 {fill:#201E1E;fill-rule:nonzero}
   ]]>
  </style>
 </defs>
 <g id="Layer_x0020_1">
  <metadata id="CorelCorpID_0Corel-Layer"/>
  <g id="_422052256">
   <g>
    <path class="fil0" d="M3139 5159c-34,0 -67,-4 -100,-13 -33,-9 -64,-21 -95,-36 -1,0 -3,-1 -6,-3 -3,-2 -5,-4 -5,-5 0,0 1,-2 3,-6 2,-3 4,-7 6,-12 3,-5 6,-11 9,-17 3,-6 7,-13 10,-19 7,-13 14,-25 21,-37 6,-12 11,-20 14,-25 6,2 11,5 16,8 23,13 47,22 70,29 23,7 48,10 75,10 7,0 15,0 24,-1 8,-1 16,-2 23,-5 7,-3 13,-7 17,-13 5,-6 7,-14 7,-25 0,-5 -1,-10 -4,-14 -3,-4 -6,-8 -10,-11 -4,-3 -8,-6 -12,-8 -4,-2 -8,-4 -12,-6 -9,-4 -18,-7 -28,-8 -9,-2 -19,-4 -28,-6 -12,-3 -25,-6 -37,-9 -12,-3 -24,-6 -35,-10 -12,-4 -23,-8 -33,-12 -11,-4 -20,-10 -29,-16 -19,-12 -33,-29 -44,-49 -11,-20 -16,-48 -16,-81 0,-12 1,-24 4,-36 2,-12 6,-23 11,-34 9,-22 22,-39 37,-53 15,-14 32,-25 50,-33 18,-8 38,-14 58,-17 20,-3 40,-5 61,-5 33,0 66,4 98,13 32,9 63,23 92,43 -11,20 -21,39 -31,58 -10,19 -20,38 -31,58 -25,-13 -49,-24 -73,-32 -23,-8 -49,-13 -76,-13 -6,0 -13,0 -20,1 -7,1 -14,2 -20,5 -6,3 -11,7 -15,12 -4,5 -6,13 -6,21 0,7 1,12 4,17 3,5 9,10 16,14 8,4 18,8 29,11 12,3 24,6 38,10 14,3 28,7 43,11 15,4 29,9 44,14 15,5 29,12 42,20 13,8 25,17 35,27 10,11 19,23 25,38 5,11 8,22 10,35 2,12 3,25 3,37 0,36 -7,65 -20,88 -13,23 -31,41 -52,54 -22,13 -46,23 -73,28 -27,5 -54,8 -81,8z"/>
    <polygon class="fil0" points="3413,5142 3413,4596 3813,4596 3813,4726 3543,4726 3543,4804 3797,4804 3797,4934 3543,4934 3543,5012 3813,5012 3813,5142 "/>
    <path class="fil0" d="M4137 4972l-105 0 0 170 -156 0 0 -546 261 0c28,0 55,4 80,13 26,9 48,21 68,37 20,16 35,35 47,58 12,23 18,47 18,74 0,27 -6,53 -18,76 -12,23 -27,44 -47,62 -20,18 -42,31 -68,42 -26,10 -52,15 -80,15zm-11 -255l-90 0 0 118 90 0c9,0 17,-2 25,-5 8,-3 15,-7 21,-13 6,-5 11,-12 14,-19 3,-7 5,-15 5,-23 0,-8 -2,-16 -5,-23 -3,-7 -8,-13 -14,-19 -6,-5 -13,-10 -21,-13 -8,-3 -16,-5 -25,-5z"/>
    <path class="fil0" d="M4664 5142l-28 -75 -165 0 -28 75 -152 0 199 -546 127 0 199 546 -152 0zm-110 -347l-43 144 85 0 -42 -144z"/>
    <polygon class="fil0" points="5195,4731 5058,4731 5058,5142 4921,5142 4921,4731 4784,4731 4775,4721 4775,4596 5204,4596 5204,4721 "/>
    <path class="fil0" d="M5665 4942c0,25 -4,48 -11,70 -8,22 -18,42 -32,60 -14,18 -30,33 -48,46 -19,13 -39,23 -60,30 -9,3 -19,6 -29,8 -10,2 -20,3 -30,3 -10,0 -20,-1 -29,-3 -10,-2 -19,-4 -29,-8 -22,-7 -42,-17 -60,-30 -19,-13 -35,-28 -48,-46 -14,-18 -24,-38 -32,-60 -8,-22 -11,-46 -11,-70l0 -346 139 0 0 337c0,10 2,20 6,29 4,9 9,16 15,23 6,6 14,11 22,15 8,4 17,5 26,5 9,0 18,-2 27,-5 8,-4 16,-8 22,-15 6,-6 12,-14 15,-23 4,-9 6,-18 6,-29l0 -337 139 0 0 346z"/>
    <polygon class="fil0" points="6291,5142 6291,4936 6102,4936 6102,5142 5953,5142 5953,4596 6102,4596 6102,4804 6291,4804 6291,4596 6441,4596 6441,5142 "/>
    <path class="fil0" d="M6944 4942c0,25 -4,48 -12,70 -8,22 -19,42 -33,60 -14,18 -31,33 -51,46 -19,13 -41,23 -63,30 -10,3 -20,6 -31,8 -10,2 -21,3 -31,3 -10,0 -21,-1 -31,-3 -10,-2 -20,-4 -30,-8 -23,-7 -44,-17 -63,-30 -19,-13 -36,-28 -51,-46 -14,-18 -25,-38 -33,-60 -8,-22 -12,-46 -12,-70l0 -346 147 0 0 337c0,10 2,20 6,29 4,9 10,16 16,23 7,6 15,11 23,15 9,4 18,5 28,5 10,0 19,-2 28,-5 9,-4 17,-8 23,-15 7,-6 12,-14 16,-23 4,-9 6,-18 6,-29l0 -337 147 0 0 346z"/>
    <path class="fil0" d="M7285 4848c0,43 -8,84 -23,121 -15,38 -36,71 -62,99 -26,28 -57,50 -92,67 -35,16 -72,24 -112,24 -10,0 -20,-1 -30,-2 -10,-1 -21,-3 -33,-5l26 -140c6,1 12,2 17,3 5,0 10,1 15,1 22,0 43,-5 62,-14 20,-9 37,-21 51,-37 15,-15 26,-34 35,-55 8,-21 13,-44 13,-68l0 -246 133 0 0 252z"/>
    <path class="fil0" d="M7646 5147l-27 -75 -161 0 -27 75 -148 0 194 -546 124 0 194 546 -148 0zm-107 -347l-42 144 83 0 -41 -144z"/>
    <polygon class="fil0" points="8148,5141 7965,4850 7965,5141 7824,5141 7824,4596 7964,4596 8148,4890 8148,4596 8289,4596 8289,5141 "/>
   </g>
   <g>
    <path class="fil1" d="M4015 4248l448 0c33,0 22,-58 22,-94l0 -824c7,8 -1,-3 10,12 81,107 273,423 362,557 22,32 215,326 221,350l477 0 0 -1750 -470 0 0 933c-16,-12 -25,-34 -39,-55 -14,-21 -24,-35 -37,-57 -27,-44 -50,-76 -77,-118 -50,-81 -99,-154 -149,-234l-261 -404c-11,-19 -31,-45 -36,-65l-470 0 0 1750z"/>
    <polygon class="fil1" points="2403,4248 3798,4248 3798,3835 2858,3835 2858,3582 3740,3582 3740,3163 2858,3163 2858,2917 3798,2917 3798,2498 2403,2498 "/>
    <path class="fil1" d="M1759 3112c4,-16 16,-47 24,-63 13,-28 17,-31 56,-31 13,54 -18,93 -80,94zm-174 -36c-32,-23 -31,-71 14,-101 15,22 33,21 14,72 -8,21 -5,23 -29,29zm-87 -174l14 0 0 29c-24,-17 -10,5 -14,-29zm-441 -7c0,-38 -3,-9 7,-29 26,17 22,11 22,51 -20,-2 -29,0 -29,-22zm289 -65c0,-22 18,-31 36,-36 89,59 -13,223 36,296 23,-12 25,-8 44,-64 11,-32 13,-56 50,-66 -3,38 -29,57 -29,80 0,68 120,204 202,-1 64,-160 153,-165 92,-67 -16,26 -30,45 -46,70 -33,49 -80,96 -81,143 33,-17 56,-34 87,-51 -19,81 -87,67 -87,152 46,-25 50,-27 83,-69 25,-32 43,-61 98,-61 -8,34 -112,137 -146,172 -158,160 -290,141 -478,48 -96,-48 -170,-100 -254,-166 -18,-14 -23,-20 -39,-33 -17,-14 -22,-16 -39,-33 -42,-42 -169,-147 -78,-147 22,0 58,62 99,111 14,17 16,23 33,40 28,28 45,43 76,68 24,20 57,48 96,49 -13,-58 -131,-159 -137,-231 60,40 106,181 145,181 75,0 -14,-192 -14,-260 94,63 124,256 244,136 60,-60 9,-137 9,-259zm-7 -108c0,-40 -4,-34 11,-54 13,-17 5,-8 25,-19 55,29 61,101 7,101 -22,0 -43,-7 -43,-29zm-651 1526l492 0c0,-69 -7,-110 -7,-181l0 -362 296 0c7,28 19,44 33,68l263 474 528 0 -405 -723c174,-116 286,-355 196,-623 -52,-157 -171,-274 -314,-351 -36,-20 -120,-53 -171,-53l-911 0 0 1750z"/>
    <path class="fil1" d="M8998 2997c0,215 49,354 236,458 289,161 769,122 769,316 0,55 -34,88 -75,106 -169,71 -493,-14 -666,-102 -28,-14 -29,-24 -69,-25 -12,50 -205,323 -210,383 22,12 45,19 70,31 23,11 47,21 71,31 144,58 325,100 508,111l188 0c196,-13 382,-68 517,-186 156,-136 187,-393 128,-580 -31,-98 -90,-160 -167,-216 -229,-164 -664,-180 -781,-268 -63,-48 -85,-259 320,-190 196,34 317,117 376,130 34,-64 74,-124 108,-188 34,-63 74,-123 108,-188 -21,-6 -98,-49 -125,-63 -124,-63 -289,-101 -457,-111l-164 0c-178,10 -347,55 -465,140 -108,78 -220,227 -220,409z"/>
    <path class="fil1" d="M5744 2997c0,215 49,354 236,458 125,70 354,120 496,148 117,23 273,56 273,168 0,221 -517,109 -677,34 -23,-11 -41,-18 -64,-30 -28,-14 -29,-24 -69,-25 -12,50 -205,323 -210,383 78,41 215,91 297,115 103,30 228,52 359,59l161 0c229,-12 453,-79 581,-236 17,-21 25,-32 40,-54 26,-40 45,-84 56,-139 44,-224 4,-420 -180,-552 -77,-55 -166,-86 -265,-119 -180,-60 -551,-86 -551,-216 0,-80 54,-121 124,-129 176,-21 360,23 515,98 24,12 68,33 92,39 60,-114 156,-262 217,-376 -21,-6 -98,-49 -125,-63 -45,-23 -87,-40 -140,-56 -101,-30 -218,-50 -339,-55l-135 0c-177,8 -349,51 -473,140 -108,78 -220,227 -220,409z"/>
    <path class="fil1" d="M7363 3655c0,343 377,651 694,651 189,0 363,-54 504,-169 146,-119 263,-280 263,-526l0 -1114 -492 0 0 1099c0,89 -75,157 -145,188 -132,60 -340,-10 -340,-239l0 -1049 -485 0 0 1157z"/>
   </g>
   <path class="fil2" d="M10659 1960c48,0 92,9 134,28 42,18 78,43 109,74 31,31 56,68 74,109 18,42 27,86 27,134 0,48 -9,93 -27,135 -18,42 -43,79 -74,110 -31,31 -68,56 -109,73 -42,18 -86,27 -134,27 -48,0 -93,-9 -135,-27 -42,-18 -79,-42 -110,-73 -31,-31 -56,-68 -73,-110 -18,-42 -27,-87 -27,-135 0,-48 9,-92 27,-134 18,-42 42,-78 73,-109 31,-31 68,-56 110,-74 42,-18 87,-28 135,-28zm0 128c-29,0 -57,6 -82,17 -26,12 -48,28 -67,48 -19,20 -34,43 -44,69 -10,26 -16,53 -16,82 0,29 5,57 16,83 10,26 25,49 44,70 19,20 41,36 67,48 26,12 53,17 82,17 29,0 57,-6 82,-17 25,-12 47,-28 66,-48 19,-20 34,-43 44,-70 10,-26 16,-54 16,-83 0,-29 -5,-57 -16,-82 -10,-26 -25,-49 -44,-69 -19,-20 -41,-36 -66,-48 -25,-12 -52,-17 -82,-17zm51 337l-40 -75 -40 0 0 75 -66 0 0 -240 119 0c12,0 24,4 36,11 12,7 20,16 27,26 9,12 13,27 13,44 0,26 -10,46 -31,60l57 99 -73 0zm-46 -187l-39 0 0 51 39 0c7,0 14,-2 19,-7 6,-5 8,-11 8,-18 0,-7 -3,-13 -8,-18 -6,-5 -12,-7 -19,-7z"/>
  </g>
  <g id="_422050792">
   <path class="fil1" d="M3822 11115l0 393c0,58 3,105 3,160 0,111 3,211 3,320 0,53 3,101 3,157l53 1000 32 212c22,124 85,238 157,333 70,93 147,173 229,254l42 38c72,63 148,125 224,183 106,79 221,162 335,232 18,11 34,20 51,32 17,11 32,20 49,31 18,11 31,20 50,30l152 91c18,10 32,19 51,29l259 148c17,9 38,20 53,30 19,-5 226,-128 248,-142 27,-17 178,-108 192,-111 -4,-15 -68,-58 -79,-68 -29,-23 -55,-43 -84,-66l-332 -264c-29,-23 -54,-44 -83,-67 -15,-12 -27,-20 -41,-32 -13,-10 -28,-28 -44,-33 17,-32 183,-274 205,-305 12,-17 22,-32 33,-50l35 -52c17,11 35,26 51,39 18,15 34,27 52,42 34,28 67,53 102,81l206 164c52,43 379,305 413,327 11,-15 91,-70 111,-85 8,-6 12,-9 19,-14 8,-6 14,-8 16,-17 -15,-4 -382,-301 -430,-340 -13,-10 -130,-109 -146,-114 23,-43 166,-244 206,-304 12,-18 22,-33 33,-50 9,-13 30,-38 34,-53 50,33 289,229 336,267 56,45 111,89 167,133l126 100c13,10 28,28 44,33 32,-21 136,-172 151,-199 41,-69 85,-156 101,-249 21,-125 39,-265 45,-392 1,-23 7,-56 7,-80 0,-45 7,-78 7,-124 0,-21 3,-26 3,-43 2,-75 10,-178 10,-250 0,-70 6,-142 7,-213 0,-19 3,-23 4,-40 1,-29 -1,-58 0,-87 0,-19 3,-21 4,-40l3 -217c0,-60 3,-111 3,-173l3 -587c0,-23 -310,-211 -343,-230 -109,-62 -222,-116 -337,-167 -17,-8 -34,-14 -52,-21 -217,-87 -447,-153 -681,-179 -237,-26 -417,-27 -654,0 -362,41 -789,195 -1092,378l-69 41c-10,6 -256,160 -256,178z"/>
   <g>
    <g>
     <path class="fil3" d="M5052 12658l140 0c10,0 7,-18 7,-29l0 -257c2,3 0,-1 3,4 25,33 85,132 113,174 7,10 67,102 69,109l149 0 0 -546 -147 0 0 291c-5,-4 -8,-11 -12,-17 -4,-7 -8,-11 -12,-18 -8,-14 -16,-24 -24,-37 -16,-25 -31,-48 -47,-73l-82 -126c-4,-6 -10,-14 -11,-20l-147 0 0 546z"/>
     <polygon class="fil3" points="4549,12658 4985,12658 4985,12530 4691,12530 4691,12451 4967,12451 4967,12320 4691,12320 4691,12243 4985,12243 4985,12112 4549,12112 "/>
     <path class="fil3" d="M4348 12304c1,-5 5,-15 7,-20 4,-9 5,-10 17,-10 4,17 -5,29 -25,29zm-54 -11c-10,-7 -10,-22 5,-32 5,7 10,7 4,23 -2,7 -2,7 -9,9zm-27 -54l5 0 0 9c-7,-5 -3,2 -5,-9zm-138 -2c0,-12 -1,-3 2,-9 8,5 7,3 7,16 -6,-1 -9,0 -9,-7zm90 -20c0,-7 6,-10 11,-11 28,19 -4,70 11,93 7,-4 8,-2 14,-20 3,-10 4,-18 16,-21 -1,12 -9,18 -9,25 0,21 37,64 63,0 20,-50 48,-51 29,-21 -5,8 -9,14 -14,22 -10,15 -25,30 -25,45 10,-5 17,-11 27,-16 -6,25 -27,21 -27,47 14,-8 16,-8 26,-22 8,-10 14,-19 31,-19 -2,11 -35,43 -46,54 -49,50 -91,44 -149,15 -30,-15 -53,-31 -79,-52 -6,-4 -7,-6 -12,-10 -5,-4 -7,-5 -12,-10 -13,-13 -53,-46 -24,-46 7,0 18,19 31,35 5,5 5,7 10,12 9,9 14,13 24,21 8,6 18,15 30,15 -4,-18 -41,-50 -43,-72 19,12 33,56 45,56 23,0 -5,-60 -5,-81 29,20 39,80 76,42 19,-19 3,-43 3,-81zm-2 -34c0,-12 -1,-11 4,-17 4,-5 1,-2 8,-6 17,9 19,32 2,32 -7,0 -14,-2 -14,-9zm-203 476l154 0c0,-22 -2,-34 -2,-56l0 -113 93 0c2,9 6,14 10,21l82 148 165 0 -126 -226c54,-36 89,-111 61,-194 -16,-49 -53,-86 -98,-110 -11,-6 -37,-17 -53,-17l-284 0 0 546z"/>
     <path class="fil3" d="M6608 12268c0,67 15,110 74,143 90,50 240,38 240,99 0,17 -11,28 -23,33 -53,22 -154,-4 -208,-32 -9,-5 -9,-8 -21,-8 -4,16 -64,101 -65,120 7,4 14,6 22,10 7,3 15,7 22,10 45,18 101,31 159,35l59 0c61,-4 119,-21 161,-58 49,-43 58,-123 40,-181 -10,-31 -28,-50 -52,-67 -72,-51 -207,-56 -244,-84 -20,-15 -27,-81 100,-59 61,11 99,36 117,41 11,-20 23,-39 34,-59 11,-20 23,-39 34,-59 -7,-2 -31,-15 -39,-20 -39,-20 -90,-32 -143,-35l-51 0c-55,3 -108,17 -145,44 -34,24 -69,71 -69,128z"/>
     <path class="fil3" d="M5592 12268c0,67 15,110 74,143 39,22 111,37 155,46 36,7 85,18 85,52 0,69 -161,34 -211,11 -7,-3 -13,-6 -20,-9 -9,-5 -9,-8 -21,-8 -4,16 -64,101 -65,120 24,13 67,28 93,36 32,9 71,16 112,18l50 0c72,-4 142,-25 181,-74 5,-6 8,-10 12,-17 8,-12 14,-26 18,-43 14,-70 1,-131 -56,-172 -24,-17 -52,-27 -83,-37 -56,-19 -172,-27 -172,-67 0,-25 17,-38 39,-40 55,-7 113,7 161,31 7,4 21,10 29,12 19,-36 49,-82 68,-117 -7,-2 -31,-15 -39,-20 -14,-7 -27,-13 -44,-17 -31,-9 -68,-16 -106,-17l-42 0c-55,3 -109,16 -148,44 -34,24 -69,71 -69,128z"/>
     <path class="fil3" d="M6098 12473c0,107 118,203 217,203 59,0 113,-17 157,-53 46,-37 82,-87 82,-164l0 -348 -154 0 0 343c0,28 -24,49 -45,59 -41,19 -106,-3 -106,-75l0 -327 -151 0 0 361z"/>
    </g>
    <path class="fil3" d="M7127 11944c15,0 29,3 42,9 13,6 24,13 34,23 10,10 17,21 23,34 6,13 9,27 9,42 0,15 -3,29 -9,42 -6,13 -13,25 -23,34 -10,10 -21,17 -34,23 -13,6 -27,8 -42,8 -15,0 -29,-3 -42,-8 -13,-6 -25,-13 -34,-23 -10,-10 -17,-21 -23,-34 -6,-13 -8,-27 -8,-42 0,-15 3,-29 8,-42 6,-13 13,-24 23,-34 10,-10 21,-17 34,-23 13,-6 27,-9 42,-9zm0 40c-9,0 -18,2 -26,5 -8,4 -15,9 -21,15 -6,6 -10,13 -14,21 -3,8 -5,17 -5,26 0,9 2,18 5,26 3,8 8,15 14,22 6,6 13,11 21,15 8,4 17,5 26,5 9,0 18,-2 25,-5 8,-4 15,-9 21,-15 6,-6 10,-14 14,-22 3,-8 5,-17 5,-26 0,-9 -2,-18 -5,-26 -3,-8 -8,-15 -14,-21 -6,-6 -13,-11 -21,-15 -8,-4 -16,-5 -25,-5zm16 105l-13 -23 -13 0 0 23 -21 0 0 -75 37 0c4,0 8,1 11,3 4,2 6,5 8,8 3,4 4,8 4,14 0,8 -3,14 -10,19l18 31 -23 0zm-14 -58l-12 0 0 16 12 0c2,0 4,-1 6,-2 2,-2 3,-3 3,-6 0,-2 -1,-4 -3,-6 -2,-2 -4,-2 -6,-2z"/>
   </g>
  </g>
 </g>
</svg>
