<?xml version="1.0" encoding="utf-8"?>
<!-- Generator: Adobe Illustrator 21.1.0, SVG Export Plug-In . SVG Version: 6.00 Build 0)  -->
<svg version="1.1" id="Layer_1" xmlns="http://www.w3.org/2000/svg" xmlns:xlink="http://www.w3.org/1999/xlink" x="0px" y="0px"
	 viewBox="0 0 246 69.2" style="enable-background:new 0 0 246 69.2;" xml:space="preserve">
<style type="text/css">
	.st0{display:none;fill:#FFDA66;}
	.st1{display:none;fill:#52B4E4;}
	.st2{display:none;fill:#3480BE;}
	.st3{display:none;}
	.st4{display:inline;fill:#FBDE40;}
	.st5{fill:#FFDA66;}
	.st6{fill:#52B4E4;}
	.st7{fill:#2A7DB3;}
	.st8{clip-path:url(#SVGID_2_);fill:#2A7DB3;}
	.st9{fill:#3480BE;}
</style>
<ellipse class="st0" cx="182.1" cy="83.6" rx="403.3" ry="142.6"/>
<path class="st1" d="M154.7,167.4C27.3,165.7-90.7,155.8-188,140.2c64,49.1,202.5,84.3,363.5,86.4c170.7,2.2,317.2-33.4,376.7-85.6
	C445.6,159.3,306.6,169.4,154.7,167.4z"/>
<path class="st2" d="M16.4,131.6h16.5v-5.5l1.7-1.7v7.2h6.8v-5h5.8v-8h3v-2.8h5v4.4h8.8v1.2h5.5v14.2h12.4v-9.2h1.8v10.4H86v-2.7
	h6.9v2.7h4.4v2.5h-4.2v1.1h4.2l0,1.8l-4.3,0l0.1,2.5h4.2c0,0,0.7-3.2,5.1-3.5c4.4-0.4,8.8,1.4,10.3,3.5c0.2,0.4,7.1,0,7.1,0v-8.7
	h0.9v-2.3h3v2.3h8.8l1.9-1.9l1.8,1.8v-2.9h7v-2.7h13.6V127h13.6V93.8c0.4,0,0.7,0.4,0.8,1.1c0.1,1.6,0.2,5.7,0.2,5.7h11.9l12.4,2.7
	v12l8.9,1.1v7.4c0,0,9.3-1.5,12.1-3.3c0.1,0.1-1.1-1.1-1.1-1.1s6-1.5,9.6-1.8c3.6-0.4,2.4-0.3,2.4-0.3l0.2-42.1
	c0-6.5-2.8-10.9-6.7-12.9c-0.1,0,0-1.2,0-1.2l-2.4-1.1v-2.7l2.4-1v-2.9l-2.5-1.1v-2.9l2.4-0.8l0-3.1l-2.8-0.9l0-2.7l2.5-0.9
	l-0.9-7.4v-3.8c0,0,5.3-1.2,6.8-1.3c0,0.1,0-4,0-4s5.2-1.3,8.8-1.3c3.6,0,7.6,0.9,8.1,1.5c0-0.1,0,3.4,0,3.4s6.3,1.3,7.2,2.1
	c0,0.1,0,4,0,4s-1.1,5.5-1.5,7c1.2,0.2,2.3,0.9,2.3,0.9v2.3l-2.5,1.4l0.1,3.2c0,0,2.1,0.5,2.4,0.8c0.3,0.3,0,2.8,0,2.8l-2.2,1v3.4
	c0,0,1.6,0.7,2,1c0.4,0.3,0.3,2.5,0.3,2.5l-2.1,0.7l-0.1,1.3c-3.5,1-6.3,6.8-6.5,8.8c0-0.1,0,7,0,7l5.4-2.6l1.9-0.1l1.4,1l7.4-0.9
	l7.7,0.7v39h6.3l1.9-2.5h13.6V82l1.2-1.3l14.9-1.1l6.1,0.4l1.8,1.6l-0.8,0.3l0.3,2.4l7.5,0.6l0.6,1.9l-1.2,0.1l0.2,1.2l2.7,0.1v2.3
	l-0.6,0.1l0.1,1.1l3.2,0.1v0.6l-0.9,0.1v10.1l10.2-1.2v-1.3l-0.8-0.5l4.3-0.6v-2.7l1.6-0.3v-0.6h2l1.3-1.1l0.5,0.3v-2.1l0.7,0.2V94
	v0.4l1.3,0.9l3.5-0.7l5,0.4v2.7l4.6,0.5v0.9l14.5,0.6v26.5l4.3,6.3l6.9,0.1l6.2,1.7l4.3-0.1v-10.2l-1.7-0.3l6.8-3.3l0.8-2.3l4.4,0.1
	l14.8-4.1v-1.5h10.8v4.3l8.7,3.4l-1.8,0.3v18.2l9.2-1.2l9.1,4.4h8.4v33h-447V131.6z"/>
<g class="st3">
	<path class="st4" d="M189.1,238.2c3.1-0.1,5.6,0.5,7.7,1.7c2.1,1.2,3.7,2.7,4.9,4.5c0.2,0.3,0.3,0.6,0.5,0.9
		c0.1,0.3,0.2,0.6,0.4,0.9c0.2,0.6,0.4,1.3,0.5,2.1c0.1,0.8,0.2,1.6,0.2,2.4c0,0.8,0,1.7-0.1,2.5s-0.3,1.5-0.6,2.1
		c-0.4,1-0.9,2-1.5,2.9c-0.8,1.1-1.6,2.1-2.6,2.9c-1,0.8-2,1.6-3.1,2.4c-0.3,0.2-0.6,0.4-0.9,0.6s-0.6,0.4-0.9,0.6
		c-0.8,0.5-1.7,1.1-2.4,1.6c-0.8,0.5-1.6,1.1-2.3,1.7c-0.3,0.2-0.5,0.4-0.7,0.6c-0.2,0.2-0.4,0.4-0.7,0.6c0,0-0.1,0.1-0.1,0.1
		c0,0-0.1,0.1-0.1,0.1c-0.2,0.2-0.5,0.4-0.7,0.7c-0.3,0.3-0.5,0.5-0.6,0.8c0,0.1-0.1,0.2-0.1,0.3s-0.1,0.2,0,0.4
		c0.1,0.2,0.2,0.3,0.4,0.4c0.2,0.1,0.4,0.1,0.6,0.2h0.3c0.2,0.1,0.4,0.1,0.7,0.1c0.2,0,0.5,0,0.7,0h2.6h8.7c0.5,0,1.2,0,2,0
		c0.8,0,1.3,0.1,1.6,0.3c0.2,0.2,0.3,0.4,0.4,0.7c0.1,0.3,0.1,0.7,0.1,1.1c0,0.4,0,0.8,0,1.2c0,0.4,0,0.8,0,1.1c0,0.2,0,0.5,0,0.7
		c0,0.3,0,0.5-0.1,0.7c0,0.4-0.2,0.7-0.6,0.9c-0.2,0.2-0.5,0.2-0.9,0.2c-0.4,0-0.7,0-1.1,0h-4h-15.4h-4.4c-0.3,0-0.7,0-1.1,0
		c-0.4,0-0.7,0-1-0.1c-0.4-0.2-0.6-0.5-0.7-0.9c-0.1-0.4-0.1-0.9,0-1.4c0-0.1,0-0.2,0-0.4c0-0.1,0-0.3,0-0.4c0.1-0.3,0.2-0.6,0.2-1
		c0.1-0.3,0.2-0.7,0.2-1c0.6-1.7,1.3-3.2,2.2-4.4c1-1.3,2.1-2.5,3.4-3.6c1.3-1.1,2.6-2.1,4-3.1c1.1-0.7,2.1-1.4,3.2-2.2
		c1.1-0.7,2.1-1.4,3.2-2.2c0.3-0.2,0.5-0.4,0.7-0.6c0.2-0.2,0.4-0.4,0.7-0.6c0.5-0.4,1-0.9,1.5-1.5c0.5-0.6,0.8-1.2,1.1-1.9
		c0.1-0.2,0.1-0.4,0.2-0.5s0.1-0.4,0.2-0.5c0.1-0.3,0.1-0.7,0.2-1.3c0-0.5,0-1-0.1-1.4c0-0.2-0.1-0.4-0.1-0.6c0-0.2-0.1-0.4-0.2-0.6
		c-0.5-1.4-1.4-2.4-2.5-3c-0.2-0.2-0.5-0.3-0.7-0.4c-0.3-0.1-0.6-0.2-0.9-0.3c-0.2-0.1-0.4-0.1-0.6-0.1c-0.2,0-0.4,0-0.7-0.1
		c-0.3-0.1-0.6-0.1-0.9,0c-0.3,0.1-0.6,0.1-0.9,0.2c-1.5,0.5-2.6,1.3-3.3,2.5c-0.3,0.5-0.6,1.1-0.8,1.7c-0.2,0.6-0.4,1.2-0.6,1.9
		c-0.1,0.5-0.2,1-0.2,1.5c0,0.5-0.2,0.9-0.7,1.2c-0.2,0.1-0.5,0.2-0.8,0.2c-0.3,0-0.7,0-1,0h-2.9c-0.4,0-0.8,0-1.1,0
		c-0.3,0-0.6-0.1-0.8-0.3c-0.2-0.1-0.3-0.3-0.4-0.6c-0.1-0.3-0.1-0.6,0-0.9V252c0-0.2,0.1-0.5,0.1-0.7c0-0.2,0-0.5,0.1-0.7
		c0.1-0.5,0.2-1,0.3-1.5c0.1-0.5,0.2-0.9,0.4-1.3c0.1-0.3,0.2-0.7,0.3-1c0.1-0.3,0.2-0.6,0.3-0.9c0.1-0.2,0.2-0.5,0.4-0.7
		c0.2-0.2,0.3-0.5,0.5-0.7c0.8-1.3,1.7-2.3,2.7-3.1c1.1-0.8,2.3-1.5,3.8-2.2c0.5-0.2,1.1-0.3,1.6-0.4c0.5-0.1,1.1-0.2,1.7-0.4
		c0.2,0,0.4,0,0.6,0c0.2,0,0.4,0,0.6-0.1c0.1,0,0.2,0,0.3,0S189,238.2,189.1,238.2z"/>
	<path class="st4" d="M235.5,257.5c0,0.2,0,0.5,0,0.7c0,0.3,0,0.5,0,0.8c0,0.2,0,0.4,0,0.6c0,0.2,0,0.4,0,0.6v0.9l-0.2,2.1
		c0,0.3-0.1,0.6-0.1,0.9s0,0.7-0.1,1c-0.2,0.7-0.3,1.4-0.4,2.1c-0.1,0.7-0.3,1.4-0.5,2c-0.8,2.4-1.8,4.4-3,5.9
		c-1.2,1.6-2.9,2.8-5.2,3.8c-0.5,0.2-1,0.3-1.6,0.4c-0.6,0.1-1.1,0.2-1.7,0.3c-0.3,0-0.5,0.1-0.7,0.1c-0.2,0-0.5,0-0.7,0.1
		c-0.1,0-0.3,0-0.6,0c-0.3,0-0.5,0-0.6-0.1h-0.6c-0.1,0-0.2,0-0.3,0c-0.1,0-0.2,0-0.3-0.1c-0.3-0.1-0.6-0.1-0.9-0.1
		s-0.6-0.1-0.9-0.1c-0.7-0.2-1.4-0.4-2-0.7s-1.2-0.5-1.7-0.9c-1.4-0.9-2.5-1.9-3.4-3.1c-0.8-1.2-1.6-2.6-2.2-4.2
		c-0.2-0.5-0.3-1.1-0.5-1.7c-0.1-0.6-0.3-1.1-0.5-1.7c-0.1-0.4-0.2-0.9-0.2-1.3c0-0.5-0.1-0.9-0.2-1.4c0-0.2,0-0.4,0-0.5
		c0-0.2,0-0.3-0.1-0.5c0-0.2,0-0.5,0-0.7c0-0.2,0-0.5-0.1-0.7c0-0.2,0-0.4,0-0.5c0-0.2,0-0.3,0-0.5c-0.1-0.3-0.1-0.7-0.1-1
		c0-0.4,0-0.7,0-1c0-0.3,0-0.5,0-0.8s0-0.5,0.1-0.8v-0.7c0.1-0.3,0.1-0.6,0.1-0.9c0-0.3,0-0.6,0.1-0.9v-0.6c0.1-0.2,0.1-0.5,0.1-0.7
		c0-0.2,0-0.5,0.1-0.7c0.1-0.2,0.1-0.4,0.1-0.7c0-0.2,0-0.5,0.1-0.7c0.2-0.5,0.3-1.1,0.3-1.6c0.1-0.5,0.2-1,0.4-1.5
		c0.8-2.3,1.8-4.2,3-5.8c1.2-1.6,2.9-2.8,5.1-3.6c0.5-0.2,0.9-0.3,1.5-0.4c0.5-0.1,1-0.2,1.6-0.3c0.2,0,0.4-0.1,0.6-0.1
		c0.2,0,0.4,0,0.6-0.1c0.1,0,0.2,0,0.3,0c0.1,0,0.2,0,0.3,0c2,0,3.8,0.2,5.3,0.7c1.5,0.5,2.8,1.2,3.9,2.1s2,2,2.8,3.3
		c0.7,1.3,1.4,2.7,1.9,4.2c0.2,0.7,0.4,1.3,0.5,2c0.1,0.7,0.2,1.4,0.4,2.1c0.1,0.3,0.1,0.6,0.1,0.9s0,0.6,0.1,0.9
		c0.1,0.4,0.1,0.8,0.1,1.2s0,0.8,0.1,1.2V257.5z M227.4,260.1c0-0.2,0-0.4,0-0.6c0-0.2,0-0.4,0-0.6c0-0.2,0-0.4,0-0.6
		c0-0.2,0-0.4,0-0.6v-0.5c0-0.3,0-0.5,0-0.8s0-0.5-0.1-0.7v-0.6c-0.1-0.4-0.1-0.8-0.1-1.1c0-0.4,0-0.7-0.1-1.1
		c-0.1-0.3-0.1-0.6-0.2-0.9c0-0.3-0.1-0.6-0.2-0.9c-0.3-1.1-0.7-2.1-1.1-3c-0.4-0.9-1-1.7-1.8-2.2c-0.5-0.3-1-0.6-1.5-0.8
		c-0.6-0.2-1.3-0.3-2.1-0.3c-0.1,0.1-0.2,0.1-0.3,0.1c-0.1,0-0.2,0-0.3,0c-0.2,0.1-0.4,0.1-0.5,0.2c-0.2,0-0.4,0.1-0.5,0.2
		c-0.9,0.4-1.6,0.9-2.1,1.7c-0.5,0.7-0.9,1.5-1.3,2.4c-0.2,0.6-0.4,1.2-0.5,1.9c-0.1,0.7-0.2,1.3-0.3,2c0,0.3-0.1,0.6-0.1,0.9
		c0,0.3,0,0.6-0.1,0.9c0,0.3-0.1,0.6-0.1,1s0,0.7,0,1v0.6c-0.1,0.2-0.1,0.4-0.1,0.6c0,0.2,0,0.4,0,0.6c0,0.2,0,0.4,0,0.6
		c0,0.2,0,0.4,0.1,0.6c0,0.2,0,0.4,0,0.7c0,0.3,0,0.5,0,0.7v0.8c0.1,0.3,0.1,0.7,0.1,1.1c0,0.4,0,0.7,0.1,1.1v0.5
		c0.1,0.3,0.1,0.7,0.2,1.1c0,0.4,0.1,0.7,0.2,1.1c0.2,0.8,0.5,1.5,0.7,2.1c0.2,0.7,0.6,1.3,1,1.8c0.4,0.5,0.9,1,1.3,1.3
		c0.4,0.3,1,0.6,1.8,0.8c0.2,0.1,0.5,0.1,0.8,0.2c0.3,0.1,0.7,0,0.9,0c0.2-0.1,0.4-0.1,0.6-0.1c0.2,0,0.4,0,0.6-0.1
		c0.4-0.2,0.9-0.4,1.3-0.7c0.5-0.3,0.8-0.6,1.1-0.9c0.3-0.5,0.6-1,0.9-1.4s0.5-0.9,0.7-1.5c0.2-0.5,0.3-1,0.4-1.5
		c0.1-0.5,0.2-1,0.3-1.6c0-0.2,0.1-0.4,0.1-0.5c0-0.2,0-0.4,0.1-0.5c0.1-0.3,0.1-0.5,0.1-0.8c0-0.3,0-0.6,0.1-0.8c0-0.3,0-0.6,0-1
		c0-0.3,0-0.7,0.1-1V260.1z"/>
	<path class="st4" d="M254.4,239.1h2.2c0.2,0,0.4,0,0.6,0c0.2,0,0.4,0,0.6,0.1h0.3c0.2,0,0.4,0.1,0.5,0.1c0.2,0.1,0.3,0.1,0.4,0.3
		c0.2,0.3,0.3,0.6,0.3,1.1c0,0.4,0,0.9,0,1.4v5.3v21v7.3c0,0.5,0,1,0,1.6c0,0.6-0.1,1-0.3,1.3c-0.2,0.2-0.3,0.3-0.5,0.4
		c-0.2,0.1-0.5,0.1-0.8,0.2h-1.4H254c-0.2,0-0.4,0-0.6,0c-0.2,0-0.4,0-0.6,0h-0.3c-0.2-0.1-0.4-0.1-0.5-0.2s-0.3-0.2-0.4-0.3
		c-0.2-0.2-0.3-0.5-0.3-0.9s0-0.8,0-1.2v-4.3V260v-3.7c0-0.3,0-0.7,0-1.1s0-0.7-0.1-1c-0.2-0.7-0.6-1-1.1-1.1
		c-0.5-0.1-1.2-0.1-2-0.1H244c-0.5,0-1.1,0-1.6-0.1c-0.5,0-0.9-0.2-1.1-0.5c-0.1-0.2-0.1-0.3-0.1-0.4s0-0.3-0.1-0.5
		c-0.1-0.2-0.1-0.4-0.1-0.6c0-0.2,0-0.4,0-0.6c0-0.5,0-1,0-1.6c0-0.5,0.1-1,0.3-1.3c0.2-0.3,0.5-0.4,0.8-0.5c0.4,0,0.7-0.1,1.1-0.2
		h0.6c0.2-0.1,0.5-0.1,0.7-0.1c0.2,0,0.5,0,0.7-0.1c0.5-0.2,0.9-0.3,1.3-0.4c0.4-0.1,0.8-0.3,1.2-0.5c0.9-0.4,1.6-0.9,2.3-1.5
		c0.6-0.6,1.2-1.3,1.6-2.1c0.2-0.4,0.4-0.9,0.6-1.6c0.2-0.6,0.5-1.1,0.8-1.3c0.2-0.2,0.4-0.2,0.6-0.3c0.1,0,0.2,0,0.3,0
		C254.2,239.1,254.3,239.1,254.4,239.1z"/>
	<path class="st4" d="M299.8,266.5c0,0.2,0.1,0.4,0.1,0.6c0,0.2,0,0.4,0,0.5c0,0.2-0.1,0.4-0.1,0.5s0,0.3,0,0.5
		c0,0.1-0.1,0.2-0.1,0.4c0,0.2,0,0.3-0.1,0.5c-0.1,0.2-0.1,0.5-0.2,0.7c0,0.2-0.1,0.4-0.2,0.6c-0.1,0.3-0.2,0.6-0.3,0.9
		c-0.1,0.3-0.2,0.6-0.3,0.9c-0.1,0.3-0.3,0.5-0.4,0.8s-0.4,0.5-0.5,0.8c-0.8,1.1-1.8,2.1-3,2.9c-1.2,0.8-2.5,1.4-4,1.9
		c-0.4,0.1-0.8,0.2-1.3,0.3c-0.4,0.1-0.8,0.2-1.3,0.3c-0.2,0.1-0.3,0.1-0.5,0.1c-0.2,0-0.3,0-0.5,0.1c-0.3,0-0.6,0-0.9,0
		c-0.3,0-0.6,0-0.9,0.1H285c-0.2,0-0.5,0-0.7,0c-0.3,0-0.5,0-0.7-0.1c-0.2-0.1-0.5-0.1-0.7-0.1c-0.2,0-0.4,0-0.6,0
		c-0.2-0.1-0.3-0.1-0.5-0.1c-0.2,0-0.3,0-0.5-0.1c-0.3-0.1-0.7-0.1-1-0.2c-0.3-0.1-0.7-0.1-1-0.3c-0.1,0-0.2-0.1-0.3-0.1
		c-0.1,0-0.2,0-0.3-0.1c-0.8-0.2-1.5-0.5-2.2-0.9c-0.8-0.4-1.7-0.9-2.5-1.5c-0.8-0.7-1.5-1.3-2-2c-0.4-0.5-0.7-1.1-1-1.7
		c-0.2-0.2-0.3-0.5-0.4-0.7s-0.2-0.5-0.3-0.8c-0.1-0.3-0.2-0.7-0.3-1c-0.1-0.4-0.2-0.8-0.2-1.1c0-0.2-0.1-0.3-0.1-0.5
		c0-0.2,0-0.3-0.1-0.5v-0.5c0-0.2,0-0.4,0-0.8c0-0.4,0-0.6,0.1-0.8c0.1-0.5,0.2-1,0.2-1.4c0-0.4,0.2-0.9,0.3-1.3
		c0.3-0.8,0.7-1.6,1.2-2.3c0.5-0.7,1-1.3,1.7-1.8c0.5-0.3,1.1-0.7,1.8-1.1c0.2-0.1,0.3-0.2,0.5-0.3c0.2-0.1,0.3-0.3,0.4-0.5
		c0-0.2,0-0.3,0-0.4c-0.1-0.1-0.1-0.2-0.2-0.3c-0.3-0.3-0.7-0.6-1.2-0.9c-0.7-0.5-1.2-1.1-1.6-1.8c-0.4-0.7-0.8-1.5-1.1-2.4
		c-0.3-0.8-0.4-1.8-0.3-3c0.1-1.1,0.2-2.1,0.5-2.8c0.7-1.9,1.7-3.3,3-4.4c1.3-1.1,2.9-1.9,4.8-2.6c0.5-0.2,1-0.3,1.6-0.4
		c0.5-0.1,1.1-0.2,1.7-0.3c0.3,0,0.5-0.1,0.8-0.1s0.5,0,0.8,0c2-0.1,3.7,0.1,5.2,0.5c1.5,0.4,2.8,1.1,3.9,1.9
		c0.4,0.3,0.7,0.5,1.1,0.8c0.3,0.3,0.6,0.6,0.9,0.9l0.2,0.2c0.2,0.2,0.3,0.4,0.5,0.6c0.2,0.2,0.3,0.4,0.5,0.6
		c0.1,0.1,0.1,0.2,0.2,0.3c0.1,0.1,0.1,0.3,0.2,0.4c0.5,0.8,0.9,1.9,1.1,3.3c0.2,1.4,0.2,2.7-0.2,3.9c-0.3,0.9-0.7,1.7-1.1,2.4
		c-0.4,0.7-1,1.3-1.6,1.8c-0.2,0.2-0.4,0.3-0.6,0.5s-0.4,0.3-0.6,0.5c-0.1,0.1-0.2,0.2-0.2,0.3c-0.1,0.1-0.1,0.2,0,0.4
		c0.1,0.2,0.2,0.3,0.3,0.4c0.1,0.1,0.2,0.2,0.4,0.3c0.3,0.2,0.5,0.3,0.8,0.4c0.3,0.1,0.5,0.3,0.8,0.5c1.3,0.9,2.4,2.2,3,3.8
		c0.2,0.4,0.3,0.8,0.4,1.3s0.2,0.9,0.3,1.4c0,0.2,0,0.3,0,0.4C299.8,266.2,299.8,266.3,299.8,266.5z M291.6,268.4
		c0.2-0.7,0.2-1.3,0.1-2.1c-0.2-0.7-0.3-1.3-0.5-1.8c-0.5-1.2-1.3-2.2-2.4-2.8c-1.1-0.7-2.5-1-4.2-1.1c-0.1,0.1-0.2,0.1-0.3,0.1
		c-0.2,0-0.3,0-0.4,0c-0.3,0.1-0.5,0.1-0.8,0.2c-0.2,0-0.5,0.1-0.7,0.2c-1,0.3-1.8,0.7-2.5,1.3c-0.7,0.6-1.2,1.3-1.6,2.2
		c-0.1,0.2-0.1,0.5-0.2,0.7c-0.1,0.3-0.1,0.5-0.2,0.8c-0.1,0.4-0.1,0.9-0.1,1.5c0,0.6,0.1,1,0.2,1.3c0.1,0.4,0.2,0.8,0.4,1.2
		c0.3,0.7,0.7,1.2,1.2,1.7c0.5,0.5,1,0.9,1.6,1.3c0.2,0.1,0.4,0.2,0.5,0.2c0.2,0.1,0.3,0.2,0.5,0.2s0.4,0.1,0.7,0.2
		c0.2,0,0.5,0.1,0.7,0.2c0.2,0,0.4,0.1,0.7,0.1c0.1,0,0.3,0.1,0.6,0.1c0.3,0,0.5,0,0.6,0c0.4-0.1,0.7-0.1,1.1-0.2
		c0.3,0,0.7-0.1,1-0.3c0.8-0.3,1.6-0.8,2.2-1.3s1.1-1.2,1.5-2c0.1-0.3,0.2-0.5,0.3-0.8C291.5,268.9,291.5,268.7,291.6,268.4z
		 M279,247.8c-0.3,0.6-0.4,1.3-0.4,2.1c0,0.8,0.1,1.5,0.4,2.1c0.3,0.7,0.7,1.3,1.3,1.7c0.5,0.4,1.2,0.8,1.9,1.1
		c0.2,0.1,0.4,0.1,0.6,0.1c0.2,0,0.4,0,0.6,0.1c0.4,0.1,1,0.2,1.6,0.2c0.7,0,1.2-0.1,1.6-0.2c1-0.3,1.8-0.7,2.5-1.2
		c0.7-0.5,1.2-1.3,1.5-2.3c0.1-0.3,0.2-0.6,0.2-1.1c0.1-0.5,0.1-0.9,0-1.2c0-0.2-0.1-0.3-0.1-0.4c0-0.1,0-0.2-0.1-0.4
		c-0.1-0.3-0.2-0.6-0.3-0.9c-0.1-0.3-0.2-0.5-0.4-0.8c-0.7-1-1.7-1.7-3-2.2c-0.2-0.1-0.4-0.1-0.6-0.1c-0.2,0-0.4,0-0.6-0.1
		c-0.2-0.1-0.5-0.1-0.7-0.1c-0.3,0-0.5,0.1-0.8,0.1c-0.1,0.1-0.2,0.1-0.3,0.1c-0.1,0-0.3,0-0.4,0c-0.2,0.1-0.4,0.1-0.6,0.1
		c-0.2,0-0.4,0.1-0.6,0.1c-0.8,0.3-1.4,0.7-2,1.2C279.8,246.4,279.4,247,279,247.8z"/>
</g>
<g>
	<polygon class="st5" points="225.6,50.9 46.9,50.9 46.9,0 83,50.7 225.6,0 	"/>
	<rect x="46.8" y="57.2" class="st6" width="178.6" height="12"/>
	<g>
		<path id="XMLID_14_" class="st6" d="M29.2,46.8L9.5,37.5c0,0-2-0.8-1.6-1.7L0.1,51c0,0-2.9,4.3,22.6,12.6l8.8-11.5L29.2,46.8z"/>
		<path id="XMLID_13_" class="st7" d="M229.1,42.4c-12.8,6.1-46.3,7.9-95.6,7.9c-47.9,0-87.1-5.6-88.7-6.6c-4.6,2.8-6.8,5.7-9.3,8
			c-0.8,0.9-1.1,2.2-1.5,2.7c12,2.8,48.6,10,99.5,10c50.4,0,92.2-5.2,105.6-10.4C236.5,50.4,233.2,44.6,229.1,42.4z"/>
		<g id="XMLID_31_">
			<g id="XMLID_32_">
				<path id="XMLID_12_" class="st6" d="M33.7,32.7c-2.8,1.6-6.5,3.7-6.3,7l5.7,13.6c1.6-2.6,5.5-8.8,11.6-11l-6.1-11.6
					C37.5,31,35.6,31.6,33.7,32.7z"/>
			</g>
		</g>
		<path id="XMLID_6_" class="st7" d="M26.1,39.7c-0.2-1.6,0.7-3.1,1.9-4.4c-2.5,0.8-7.7,1.6-17.3-0.2c0,0-0.6-0.1-0.8,0
			c0,0-1.1,0.6-0.5,1c0.2,0.3,19.2,9.1,19.2,9.1L26.1,39.7z"/>
		<g id="XMLID_1_">
			<g id="XMLID_2_">
				<path id="XMLID_3_" class="st6" d="M239.6,32.6c2.8,1.6,6.5,3.7,6.4,6.9L240.3,53c-1.7-2.5-5.7-11-13.3-12.7l7.7-9.7
					C235.8,30.8,237.7,31.4,239.6,32.6z"/>
			</g>
		</g>
	</g>
	<g>
		<defs>
			<ellipse id="SVGID_1_" cx="136.1" cy="35.1" rx="89.3" ry="31.6"/>
		</defs>
		<clipPath id="SVGID_2_">
			<use xlink:href="#SVGID_1_"  style="overflow:visible;"/>
		</clipPath>
		<path class="st8" d="M67.5,60v-8.6l3.4-0.7v-4.2h1.3v-0.7h4.6v3.5h0.7v-1.7h1V49h1.1v-2.2h1.6v1.1h0.8v2.8H83v-5h0.7V26.5h1.5
			v-0.7h-1.2l1.1-1.1h1.3v-1h-0.9l0.7-0.7h5.1v-1.2h6v24.7h0.7v1.2h1.8v-2h2.3v-1.4h0.7v-4.8h0.8v-0.9h0.9V21.8h5.8V23h5.1l0.8,0.8
			h-0.9v0.9h0.9l0.9,0.9h-1v0.6h1.7v22.9h0.8v-3.8h3.2V46h0.7v3h0.9v-6.7h0.5v-1.1h0.6v1h1.1v-1.1h0.6v1.1h0.7v2.5h3.5v1.7h1.7v2.5
			h0.4v0.4h0.7v-7.7h2.9c0,0,0-7.1,0-7.2c0-1.5-1.5-3.8-2.1-3.8c0.1,0-0.6-0.1-0.6-0.1l0.9-0.1l0-2.1l-0.7-0.3l0.7,0l0-2.2l-0.8-0.2
			l0.9-0.2l-0.9-3.6c0-0.7,2.3-0.9,2.3-0.9l-0.1-1.2h4.9v1.1c0,0,2,0.3,2.1,1c0,0-0.7,3.6-0.7,3.6l0.9,0.2l-1,0.2v2l1,0.3l-1,0.2
			v1.9l1,0.2l-0.9,0.1c-0.5,0-1.4,2.9-1.4,3.6c0,0,0,11.4,0,11.4h2.2v3.7h1.2v-8.3h1.2v9.3h0.3v-7.6h1.9v1.9h0.6v-2h1v0.7h0.6v0.8
			h0.9v0.4h0.7v-3.6h0.6l0.2-3.7l0.2,3.6h0.8l0.2-3.1l0.2,3.1h0.5v3.6h0.3v0.6h2v-2l-0.4,0v-2h0.3l0.9-1.1v-1.1c0.3,0,1.3-1,1.3-1.4
			c0,0.4,0.9,1.5,1.2,1.5c0,0,0.1,1,0.1,1l0.6,0.9l0.4,0v-0.4h0.7v-0.8h1.1v-1.3h0.5v-0.4l1.2-1.7v-2.4c0.9,0,2.2-2.2,2.2-2.9
			c0,0.6,1.6,3,2.2,3c0,0,0,2.4,0,2.4l1.1,1.5v0.5h1.5v0.4h2.2l0.7-0.4v-0.7h0.4v-0.4h0.2v0.4h0.8v0.8h0.4v0.4h2.2v1.2h0.7
			c0,0,0.1,8.2,0,8.1c-0.1-0.1,0.3,0,0.3,0v1.5h0.7V31.9h0.3v-0.9h0.2V32h0.5v-0.7h1.2l0.1-2.5l0.3,2.4h1V32h1.1v14.3h0.7v5h0.5
			v-5.7h2.4v-7.6h1v-0.8h1.3v0.8h0.8v-0.8h1.3v0.9h1.1v7.5h2.4v5.7h0.5v-4.9h1.9v4.9h0.1h0.7v-2.8h0.8v-1.1h1.9c0,0-0.1,2.5,0,2.4
			c0.1-0.1,1.2,0,1.2,0v-1.6h0.9v1.5h1.1v1.7h0.5v8.9L67.5,60z"/>
	</g>
	<g>
		<g>
			<path class="st9" d="M70.5,12.4c-0.1-0.1-0.1-0.2-0.1-0.3c0-3.7,0-7.4,0-11.2c0-0.2,0.1-0.4,0.2-0.5c0.1-0.1,0.3-0.2,0.5-0.2
				c2.3,0,3.5,0,5.8,0c0.1,0,0.2,0,0.3,0.1c0.1,0.1,0.1,0.2,0.1,0.3c0,0.5,0,0.8,0,1.3c0,0.1,0,0.2-0.1,0.3
				c-0.1,0.1-0.2,0.1-0.3,0.1c-1.8,0-2.7,0-4.5,0c0,1.3,0,1.9,0,3.2c1.3,0,2,0,3.3,0c0.1,0,0.2,0,0.3,0.1c0.1,0.1,0.1,0.2,0.1,0.3
				c0,0.5,0,0.7,0,1.2c0,0.1,0,0.2-0.1,0.3c-0.1,0.1-0.2,0.1-0.3,0.1c-1.3,0-2,0-3.3,0c0,1.9,0,2.8,0,4.7c0,0.1,0,0.2-0.1,0.3
				c-0.1,0.1-0.2,0.1-0.3,0.1c-0.5,0-0.8,0-1.4,0C70.6,12.5,70.6,12.5,70.5,12.4z"/>
			<path class="st9" d="M81.1,12.1c-0.7-0.4-1.2-1-1.7-1.6C79,9.8,78.8,9,78.8,8.2c0-1.5,0-2.2,0-3.7c0-0.8,0.2-1.6,0.6-2.3
				c0.4-0.7,1-1.2,1.7-1.6C81.8,0.2,82.5,0,83.3,0c0.8,0,1.6,0.2,2.3,0.6c0.7,0.4,1.2,1,1.7,1.6c0.4,0.7,0.6,1.4,0.6,2.3
				c0,1.5,0,2.2,0,3.7c0,0.8-0.2,1.6-0.6,2.3c-0.4,0.7-1,1.2-1.7,1.6c-0.7,0.4-1.5,0.6-2.3,0.6C82.5,12.7,81.8,12.5,81.1,12.1z
				 M84.6,10.4c0.4-0.2,0.7-0.5,0.9-0.9c0.2-0.4,0.3-0.8,0.3-1.3c0-1.5,0-2.2,0-3.7c0-0.4-0.1-0.9-0.3-1.3c-0.2-0.4-0.5-0.7-0.9-0.9
				C84.2,2.1,83.8,2,83.3,2c-0.4,0-0.8,0.1-1.2,0.3c-0.4,0.2-0.7,0.5-0.9,0.9c-0.2,0.4-0.3,0.8-0.3,1.3c0,1.5,0,2.2,0,3.7
				c0,0.4,0.1,0.9,0.3,1.3c0.2,0.4,0.5,0.7,0.9,0.9c0.4,0.2,0.8,0.3,1.2,0.3C83.8,10.7,84.2,10.6,84.6,10.4z"/>
			<path class="st9" d="M91.5,12.4c-0.6-0.2-1.2-0.5-1.7-0.8c-0.1,0-0.1-0.1-0.1-0.2c0-0.1,0-0.2,0-0.2c0.2-0.4,0.4-0.6,0.6-1.1
				c0.1-0.1,0.2-0.2,0.3-0.2c0.1,0,0.2,0,0.3,0.1c0.9,0.5,1.7,0.8,2.4,0.8c0.6,0,1.1-0.1,1.4-0.4c0.3-0.3,0.5-0.7,0.5-1.1
				c0-0.3-0.1-0.6-0.3-0.8c-0.2-0.2-0.4-0.4-0.7-0.5c-0.3-0.1-0.7-0.3-1.3-0.5c-0.2-0.1-0.3-0.1-0.5-0.2c-0.8-0.3-1.4-0.8-2-1.3
				c-0.5-0.5-0.8-1.3-0.8-2.3c0-0.7,0.2-1.3,0.5-1.9c0.3-0.5,0.8-1,1.3-1.3C92.2,0.2,92.8,0,93.5,0c0.6,0,1.2,0.1,1.8,0.3
				C96,0.5,96.5,0.8,97,1.1c0.1,0,0.1,0.1,0.1,0.2c0,0.1,0,0.2,0,0.2c-0.2,0.4-0.3,0.6-0.6,1.1c-0.1,0.1-0.2,0.2-0.3,0.2
				c-0.1,0-0.2,0-0.3-0.1c-0.4-0.3-0.9-0.5-1.3-0.6C94.2,2,93.9,2,93.6,2c-0.5,0-0.9,0.1-1.2,0.4C92,2.7,91.9,3,91.9,3.5
				c0,0.4,0.2,0.8,0.5,1.1c0.3,0.3,0.8,0.6,1.6,0.9c0.1,0,0.5,0.2,1.2,0.5c0.7,0.3,1.2,0.7,1.6,1.2c0.4,0.5,0.6,1.2,0.6,1.9
				c0,0.7-0.2,1.3-0.5,1.9c-0.3,0.6-0.8,1-1.4,1.3c-0.6,0.3-1.3,0.5-2.1,0.5C92.7,12.7,92.1,12.6,91.5,12.4z"/>
			<path class="st9" d="M100.7,12.4c-0.6-0.2-1.2-0.5-1.7-0.8c-0.1,0-0.1-0.1-0.1-0.2c0-0.1,0-0.2,0-0.2c0.2-0.4,0.4-0.6,0.6-1.1
				c0.1-0.1,0.2-0.2,0.3-0.2c0.1,0,0.2,0,0.3,0.1c0.9,0.5,1.7,0.8,2.4,0.8c0.6,0,1.1-0.1,1.4-0.4c0.3-0.3,0.5-0.7,0.5-1.1
				c0-0.3-0.1-0.6-0.3-0.8c-0.2-0.2-0.4-0.4-0.7-0.5c-0.3-0.1-0.7-0.3-1.3-0.5c-0.2-0.1-0.3-0.1-0.5-0.2c-0.8-0.3-1.4-0.8-2-1.3
				C99.2,5.3,99,4.6,99,3.6c0-0.7,0.2-1.3,0.5-1.9c0.3-0.5,0.8-1,1.3-1.3c0.6-0.3,1.2-0.4,1.9-0.4c0.6,0,1.2,0.1,1.8,0.3
				c0.6,0.2,1.1,0.5,1.6,0.8c0.1,0,0.1,0.1,0.1,0.2c0,0.1,0,0.2,0,0.2c-0.2,0.4-0.3,0.6-0.6,1.1c-0.1,0.1-0.2,0.2-0.3,0.2
				c-0.1,0-0.2,0-0.3-0.1c-0.4-0.3-0.9-0.5-1.3-0.6C103.4,2,103,2,102.7,2c-0.5,0-0.9,0.1-1.2,0.4c-0.3,0.3-0.4,0.6-0.4,1.1
				c0,0.4,0.2,0.8,0.5,1.1c0.3,0.3,0.8,0.6,1.6,0.9c0.1,0,0.5,0.2,1.2,0.5c0.7,0.3,1.2,0.7,1.6,1.2c0.4,0.5,0.6,1.2,0.6,1.9
				c0,0.7-0.2,1.3-0.5,1.9c-0.3,0.6-0.8,1-1.4,1.3c-0.6,0.3-1.3,0.5-2.1,0.5C101.9,12.7,101.3,12.6,100.7,12.4z"/>
			<path class="st9" d="M113.5,12.4c-0.1-0.1-0.1-0.2-0.1-0.3c0-0.9,0-1.4,0-2.3c-1.9,0-2.9,0-4.8,0c-0.2,0-0.3-0.1-0.4-0.2
				c-0.1-0.1-0.2-0.3-0.2-0.4c0-0.4,0-0.6,0-1c1.6-2.6,3.2-5.1,4.8-7.7c0.1-0.2,0.3-0.3,0.4-0.3c0.6,0,0.9,0,1.5,0
				c0.2,0,0.3,0.1,0.4,0.2c0.1,0.1,0.2,0.3,0.2,0.4c0,2.4,0,4.7,0,7.1c0.5,0,0.8,0,1.3,0c0.1,0,0.2,0,0.3,0.1
				c0.1,0.1,0.1,0.2,0.1,0.3c0,0.5,0,0.7,0,1.2c0,0.1,0,0.2-0.1,0.3c-0.1,0.1-0.2,0.1-0.3,0.1c-0.5,0-0.8,0-1.3,0c0,0.9,0,1.4,0,2.3
				c0,0.1,0,0.2-0.1,0.3c-0.1,0.1-0.2,0.1-0.3,0.1c-0.5,0-0.7,0-1.2,0C113.6,12.5,113.6,12.5,113.5,12.4z M113.4,7.9
				c0-1.9,0-2.9,0-4.8c-1.2,1.9-1.8,2.9-3,4.8C111.6,7.9,112.2,7.9,113.4,7.9z"/>
			<path class="st9" d="M121,12.1c-0.7-0.4-1.2-1-1.6-1.6c-0.4-0.7-0.6-1.4-0.6-2.3c0-1.5,0-2.2,0-3.7c0-0.8,0.2-1.6,0.6-2.3
				c0.4-0.7,1-1.2,1.6-1.6c0.7-0.4,1.4-0.6,2.3-0.6c0.7,0,1.4,0.1,2,0.4c0.6,0.3,1.1,0.6,1.6,1.1c0.1,0.1,0.1,0.2,0.1,0.3
				c0,0.1,0,0.2-0.1,0.3c-0.3,0.3-0.5,0.5-0.8,0.8c-0.1,0.1-0.2,0.1-0.3,0.1c-0.1,0-0.2-0.1-0.3-0.2c-0.6-0.6-1.3-0.9-2.2-0.9
				c-0.4,0-0.8,0.1-1.2,0.3c-0.4,0.2-0.7,0.5-0.9,0.9c-0.2,0.4-0.3,0.8-0.3,1.3c0,1.5,0,2.2,0,3.7c0,0.4,0.1,0.9,0.3,1.3
				c0.2,0.4,0.5,0.7,0.9,0.9c0.4,0.2,0.8,0.3,1.2,0.3c0.4,0,0.8-0.1,1.2-0.3c0.4-0.2,0.7-0.5,0.9-0.9c0.2-0.4,0.3-0.8,0.3-1.2
				c0-0.3,0-0.5,0-0.8c-0.9,0-1.4,0-2.3,0c-0.1,0-0.2,0-0.3-0.1c-0.1-0.1-0.1-0.2-0.1-0.3c0-0.5,0-0.7,0-1.2c0-0.1,0-0.2,0.1-0.3
				c0.1-0.1,0.2-0.1,0.3-0.1c1.4,0,2.2,0,3.6,0c0.2,0,0.4,0.1,0.5,0.2c0.1,0.1,0.2,0.3,0.2,0.5c0,0.8,0,1.2,0,2
				c0,0.8-0.2,1.6-0.6,2.3c-0.4,0.7-1,1.2-1.6,1.6c-0.7,0.4-1.4,0.6-2.3,0.6C122.5,12.7,121.7,12.5,121,12.1z"/>
			<path class="st9" d="M134,12.3c-0.1-0.1-0.2-0.3-0.2-0.5c0-0.5,0-0.8,0-1.4c0-0.9,0.1-1.6,0.4-2.1c0.2-0.5,0.6-1,1.1-1.3
				c0.5-0.4,1.3-0.9,2.5-1.6c0.4-0.2,0.7-0.5,0.9-0.8c0.2-0.3,0.3-0.6,0.3-1c0-0.5-0.2-0.9-0.5-1.1c-0.3-0.3-0.8-0.4-1.3-0.4
				c-0.7,0-1.4,0.2-2.1,0.7c-0.1,0-0.1,0.1-0.2,0.1c-0.1,0-0.2-0.1-0.3-0.2c-0.2-0.4-0.3-0.6-0.6-1c0-0.1-0.1-0.1-0.1-0.2
				c0-0.1,0.1-0.2,0.2-0.3c0.5-0.3,1-0.5,1.6-0.7c0.6-0.2,1.2-0.3,1.8-0.3c1.1,0,2,0.3,2.7,0.9c0.6,0.6,1,1.5,1,2.5
				c0,0.8-0.2,1.5-0.6,2c-0.4,0.5-1,1.1-1.9,1.7c-0.3,0.2-0.5,0.3-0.7,0.4c-0.5,0.3-0.9,0.5-1.1,0.7c-0.3,0.2-0.5,0.4-0.7,0.7
				c-0.2,0.3-0.3,0.6-0.3,1c0,0.2,0,0.3,0,0.5c1.8,0,2.7,0,4.5,0c0.1,0,0.2,0,0.3,0.1s0.1,0.2,0.1,0.3c0,0.5,0,0.8,0,1.3
				c0,0.1,0,0.2-0.1,0.3c-0.1,0.1-0.2,0.1-0.3,0.1c-2.3,0-3.4,0-5.7,0C134.4,12.5,134.2,12.4,134,12.3z"/>
			<path class="st9" d="M144,11.1c-0.7-1.1-1.1-2.7-1.1-4.7c0-2.1,0.4-3.7,1.1-4.7c0.7-1.1,1.8-1.6,3.2-1.6c1.4,0,2.5,0.5,3.2,1.6
				c0.7,1.1,1.1,2.7,1.1,4.7c0,2.1-0.4,3.7-1.1,4.8c-0.7,1.1-1.8,1.6-3.2,1.6C145.8,12.7,144.7,12.2,144,11.1z M148.5,10.3
				c0.3-0.3,0.6-0.8,0.7-1.4c0.1-0.6,0.2-1.5,0.2-2.6s-0.1-1.9-0.2-2.5c-0.1-0.6-0.4-1.1-0.7-1.4c-0.3-0.3-0.7-0.4-1.3-0.4
				c-0.5,0-0.9,0.1-1.3,0.4c-0.3,0.3-0.6,0.8-0.7,1.4c-0.1,0.6-0.2,1.5-0.2,2.6c0,1.5,0.2,2.7,0.5,3.3c0.3,0.7,0.9,1,1.7,1
				C147.8,10.8,148.2,10.6,148.5,10.3z"/>
			<path class="st9" d="M153.4,12.4c-0.1-0.1-0.1-0.2-0.1-0.3c0-0.5,0-0.7,0-1.2c0-0.1,0-0.2,0.1-0.3c0.1-0.1,0.2-0.1,0.3-0.1
				c0.8,0,1.2,0,1.9,0c0-2.5,0-5.1,0-7.6c-0.6,0-0.9,0-1.4,0c-0.1,0-0.3,0-0.4-0.1c-0.1-0.1-0.1-0.2-0.1-0.4c0-0.3,0-0.5,0-0.8
				c1.1-0.6,1.7-0.9,2.8-1.4c0.3,0,0.4,0,0.7,0c0.1,0,0.3,0,0.4,0.1s0.1,0.2,0.1,0.4c0,3.3,0,6.6,0,9.9c0.8,0,1.2,0,1.9,0
				c0.1,0,0.2,0,0.3,0.1c0.1,0.1,0.1,0.2,0.1,0.3c0,0.5,0,0.7,0,1.2c0,0.1,0,0.2-0.1,0.3c-0.1,0.1-0.2,0.1-0.3,0.1
				c-2.4,0-3.5,0-5.9,0C153.6,12.5,153.5,12.5,153.4,12.4z"/>
			<path class="st9" d="M163.2,12.2c-0.7-0.3-1.2-0.8-1.6-1.4c-0.4-0.6-0.6-1.3-0.6-2c0-0.6,0.1-1.1,0.4-1.7c0.3-0.5,0.6-1,1.1-1.4
				c-0.3-0.3-0.5-0.6-0.7-1c-0.2-0.4-0.2-0.8-0.2-1.3c0-0.6,0.2-1.2,0.5-1.8c0.3-0.5,0.8-0.9,1.4-1.3c0.6-0.3,1.2-0.5,1.9-0.5
				c0.7,0,1.4,0.2,1.9,0.5c0.6,0.3,1.1,0.7,1.4,1.2c0.3,0.5,0.5,1.1,0.5,1.7c0,0.9-0.3,1.7-1,2.6c0.5,0.3,0.9,0.7,1.2,1.2
				c0.3,0.5,0.4,1,0.4,1.6c0,0.7-0.2,1.4-0.6,1.9c-0.4,0.6-0.9,1-1.6,1.4c-0.7,0.3-1.4,0.5-2.2,0.5
				C164.6,12.7,163.9,12.6,163.2,12.2z M167.1,10.3c0.5-0.4,0.7-0.9,0.7-1.5c0-0.4-0.1-0.7-0.4-1c-0.2-0.2-0.6-0.4-1-0.5
				c-0.4-0.1-1-0.3-1.8-0.5c-0.2-0.1-0.4-0.1-0.6-0.1c-0.3,0.2-0.6,0.5-0.8,0.9c-0.2,0.4-0.3,0.8-0.3,1.2c0,0.6,0.2,1.1,0.7,1.5
				c0.4,0.4,1,0.6,1.7,0.6C166.1,10.9,166.7,10.7,167.1,10.3z M167.1,4.5c0.1-0.3,0.2-0.6,0.2-0.9c0-0.5-0.2-0.9-0.5-1.2
				c-0.3-0.3-0.8-0.5-1.3-0.5c-0.5,0-0.9,0.1-1.3,0.4c-0.3,0.3-0.5,0.7-0.5,1.1c0,0.5,0.2,0.9,0.7,1.2c0.5,0.3,1.2,0.5,2.2,0.7
				C166.7,5.1,166.9,4.8,167.1,4.5z"/>
		</g>
	</g>
	<g>
		<g>
			<path class="st5" d="M94.6,60c-0.1-0.1-0.1-0.2-0.1-0.4c0.2-2.6,0.5-5.1,0.7-7.7c0-0.1,0.1-0.3,0.2-0.4c0.1-0.1,0.3-0.1,0.4-0.1
				c1,0.1,1.5,0.1,2.5,0.2c0.7,0.1,1.3,0.3,1.8,0.6c0.5,0.3,0.9,0.8,1.2,1.3c0.3,0.5,0.4,1.1,0.3,1.8c-0.1,0.8-0.1,1.2-0.2,1.9
				c-0.1,0.6-0.3,1.2-0.6,1.7c-0.4,0.5-0.8,0.9-1.4,1.1c-0.6,0.3-1.2,0.4-1.9,0.3c-1-0.1-1.6-0.1-2.6-0.2
				C94.9,60.2,94.7,60.2,94.6,60z M97.7,59c0.4,0,0.7,0,1.1-0.2c0.3-0.1,0.6-0.4,0.8-0.6c0.2-0.3,0.3-0.6,0.4-1
				c0.1-0.8,0.1-1.2,0.2-2c0-0.3,0-0.7-0.2-1c-0.2-0.3-0.4-0.6-0.7-0.8c-0.3-0.2-0.6-0.3-1-0.4c-0.6-0.1-0.9-0.1-1.5-0.1
				c-0.2,2.3-0.3,3.5-0.5,5.9C96.8,59,97.1,59,97.7,59z"/>
			<path class="st5" d="M103.3,60.5c-0.4-0.4-0.6-0.9-0.6-1.6c0-0.6,0.3-1,0.7-1.4c0.4-0.3,1.1-0.5,1.8-0.6c0.2,0,0.4,0,0.6,0
				c0.6,0,1-0.1,1.1-0.1c0.3,0,0.5-0.2,0.5-0.5c0-0.3-0.1-0.6-0.3-0.8c-0.3-0.2-0.6-0.3-1-0.3c-0.7,0-1.2,0.2-1.6,0.6
				c-0.1,0.1-0.2,0.1-0.3,0.1c-0.1,0-0.1,0-0.2-0.1c-0.3-0.2-0.4-0.3-0.7-0.5c-0.1-0.1-0.1-0.1-0.1-0.2c0,0,0-0.1,0-0.1
				c0.3-0.4,0.7-0.7,1.2-1c0.5-0.2,1.1-0.3,1.7-0.3c0.6,0,1.1,0.2,1.5,0.4c0.4,0.2,0.7,0.5,1,0.9c0.2,0.4,0.3,0.8,0.3,1.3
				c-0.1,1.8-0.2,2.7-0.3,4.4c0,0.1,0,0.1-0.1,0.2s-0.1,0.1-0.2,0.1c-0.4,0-0.5,0-0.9-0.1c-0.1,0-0.1,0-0.2-0.1c0,0-0.1-0.1-0.1-0.2
				c0-0.2,0-0.3,0-0.5c-0.6,0.6-1.4,0.8-2.2,0.7C104.3,61.2,103.7,60.9,103.3,60.5z M106.3,59.7c0.3-0.1,0.6-0.3,0.8-0.6
				c0.2-0.3,0.3-0.5,0.3-0.8c0-0.1,0-0.1,0-0.2c-0.4,0-0.6,0-1,0.1c-0.5,0-0.9,0-1,0.1c-0.7,0.1-1.1,0.3-1.1,0.8
				c0,0.3,0.1,0.5,0.3,0.6c0.2,0.2,0.5,0.3,0.8,0.3C105.6,59.9,106,59.9,106.3,59.7z"/>
			<path class="st5" d="M110.4,61.3c-0.1-0.1-0.1-0.1-0.1-0.2c0-0.4,0-0.5,0.1-0.9c0-0.1,0-0.1,0.1-0.2c0.1,0,0.1-0.1,0.2-0.1
				c0.4,0,0.6,0,1,0.1c0.1-1.7,0.1-2.5,0.2-4.2c-0.5,0-0.7,0-1.1-0.1c-0.1,0-0.1,0-0.2-0.1c0-0.1-0.1-0.1-0.1-0.2
				c0-0.3,0-0.5,0.1-0.9c0-0.1,0-0.1,0.1-0.2c0.1,0,0.1-0.1,0.2-0.1c0.8,0,1.2,0.1,2,0.1c0.2,0,0.3,0.1,0.4,0.2
				c0.1,0.1,0.2,0.2,0.1,0.4c0,0.2,0,0.3,0,0.4c0.3-0.2,0.4-0.3,0.7-0.5c0.3-0.2,0.5-0.3,0.7-0.4c0.2-0.1,0.4-0.1,0.7-0.1
				c0.2,0,0.2,0,0.4,0c0.1,0,0.1,0,0.2,0.1c0,0.1,0.1,0.1,0.1,0.2c0,0.4,0,0.6,0,0.9c0,0.1,0,0.1-0.1,0.2c-0.1,0-0.1,0.1-0.2,0.1
				c-0.1,0-0.2,0-0.3,0c-0.2,0-0.4,0-0.6,0.1c-0.2,0.1-0.4,0.2-0.8,0.4c-0.3,0.2-0.4,0.3-0.8,0.5c-0.1,1.2-0.1,1.8-0.2,3.1
				c0.5,0,0.8,0,1.3,0.1c0.1,0,0.1,0,0.2,0.1c0.1,0.1,0.1,0.1,0.1,0.2c0,0.4,0,0.5,0,0.9c0,0.1,0,0.1-0.1,0.2s-0.1,0.1-0.2,0.1
				c-1.5-0.1-2.3-0.1-3.9-0.2C110.5,61.4,110.4,61.4,110.4,61.3z"/>
			<path class="st5" d="M121.9,61.6c-0.5-0.3-0.8-0.6-1.1-1.1c-0.3-0.5-0.4-1-0.4-1.5c0-0.5,0-0.8,0.1-1.3c0-0.5,0.2-1,0.5-1.5
				c0.3-0.4,0.7-0.8,1.2-1c0.5-0.2,1-0.4,1.6-0.3c0.6,0,1.1,0.2,1.5,0.4c0.5,0.3,0.8,0.6,1.1,1.1c0.3,0.5,0.4,1,0.4,1.5
				c0,0.3,0,0.5,0,0.8c0,0.1-0.1,0.3-0.2,0.4c-0.1,0.1-0.2,0.1-0.4,0.1c-1.6,0-2.5-0.1-4.1-0.1c0,0,0,0,0,0.1c0,0.4,0.1,0.7,0.4,1
				c0.3,0.3,0.7,0.4,1.1,0.5c0.8,0,1.3,0,2.1,0.1c0.1,0,0.1,0,0.2,0.1c0.1,0.1,0.1,0.1,0.1,0.2c0,0.4,0,0.5,0,0.9
				c0,0.1,0,0.1-0.1,0.2c-0.1,0-0.1,0.1-0.2,0.1c-0.8,0-1.3,0-2.1-0.1C122.9,62,122.3,61.9,121.9,61.6z M125.1,57.9c0,0,0-0.1,0-0.1
				c0-0.4-0.1-0.7-0.4-1c-0.3-0.3-0.7-0.4-1.1-0.5c-0.4,0-0.8,0.1-1.1,0.4c-0.3,0.3-0.5,0.6-0.5,1c0,0,0,0.1,0,0.1
				C123.3,57.8,123.9,57.8,125.1,57.9z"/>
			<path class="st5" d="M129.1,62.1c-0.4-0.1-0.8-0.3-1.2-0.6c0,0-0.1-0.1-0.1-0.1c0-0.1,0-0.1,0-0.2c0.1-0.1,0.2-0.4,0.5-0.8
				c0.1-0.1,0.2-0.1,0.3-0.1c0.1,0,0.1,0,0.2,0.1c0.3,0.2,0.6,0.4,0.9,0.5c0.3,0.1,0.6,0.2,0.9,0.2c0.4,0,0.7-0.1,0.8-0.2
				c0.2-0.1,0.3-0.3,0.3-0.5c0-0.2-0.1-0.3-0.2-0.4c-0.2-0.1-0.5-0.2-0.9-0.4c-0.2-0.1-0.3-0.1-0.5-0.2c-0.4-0.1-0.7-0.3-1-0.5
				c-0.3-0.2-0.5-0.4-0.7-0.7c-0.2-0.3-0.3-0.6-0.3-1c0-0.6,0.3-1.2,0.7-1.5c0.5-0.4,1.1-0.5,1.8-0.5c0.4,0,0.9,0.1,1.3,0.2
				c0.4,0.1,0.8,0.3,1.1,0.6c0,0,0.1,0.1,0.1,0.1c0,0.1,0,0.1,0,0.2c-0.1,0.2-0.2,0.4-0.4,0.8c-0.1,0.1-0.1,0.1-0.3,0.1
				c-0.1,0-0.1,0-0.2-0.1c-0.6-0.4-1.2-0.6-1.7-0.6c-0.3,0-0.5,0-0.7,0.2c-0.2,0.1-0.3,0.3-0.3,0.5c0,0.2,0.1,0.4,0.3,0.5
				c0.2,0.1,0.5,0.3,1.1,0.5c0.5,0.2,0.9,0.3,1.2,0.5c0.3,0.1,0.5,0.3,0.8,0.6c0.2,0.3,0.3,0.6,0.3,1.1c0,0.4-0.1,0.8-0.4,1.1
				c-0.2,0.3-0.6,0.6-1,0.7c-0.4,0.2-0.9,0.3-1.4,0.2C130,62.4,129.6,62.3,129.1,62.1z"/>
			<path class="st5" d="M139.2,62.2c-0.5-0.1-0.9-0.3-1.3-0.6c0,0-0.1-0.1-0.1-0.1c0-0.1,0-0.1,0-0.2c0.2-0.3,0.3-0.5,0.5-0.8
				c0.1-0.1,0.1-0.1,0.3-0.1c0.1,0,0.1,0,0.2,0c0.7,0.4,1.3,0.6,1.9,0.6c0.5,0,0.8-0.1,1.1-0.3c0.3-0.2,0.4-0.5,0.4-0.8
				c0-0.2-0.1-0.4-0.2-0.6c-0.1-0.2-0.3-0.3-0.5-0.4c-0.2-0.1-0.5-0.2-1-0.4c-0.2-0.1-0.2-0.1-0.4-0.1c-0.6-0.2-1.1-0.5-1.5-0.9
				c-0.4-0.4-0.6-0.9-0.6-1.6c0-0.5,0.1-0.9,0.4-1.3c0.2-0.4,0.6-0.7,1-0.9c0.4-0.2,0.9-0.3,1.5-0.3c0.5,0,0.9,0.1,1.4,0.2
				c0.5,0.1,0.9,0.3,1.2,0.6c0,0,0.1,0.1,0.1,0.1c0,0.1,0,0.1,0,0.2c-0.2,0.3-0.3,0.5-0.4,0.8c-0.1,0.1-0.1,0.1-0.2,0.1
				c-0.1,0-0.1,0-0.2,0c-0.3-0.2-0.7-0.3-1-0.4c-0.3-0.1-0.6-0.1-0.8-0.1c-0.4,0-0.7,0.1-0.9,0.3c-0.2,0.2-0.3,0.5-0.3,0.8
				c0,0.3,0.1,0.6,0.4,0.8c0.2,0.2,0.6,0.4,1.2,0.6c0.1,0,0.4,0.1,0.9,0.3c0.5,0.2,0.9,0.5,1.2,0.9c0.3,0.4,0.5,0.8,0.5,1.4
				c0,0.5-0.1,1-0.4,1.4c-0.3,0.4-0.6,0.7-1.1,0.9c-0.5,0.2-1,0.3-1.6,0.3C140.1,62.4,139.7,62.4,139.2,62.2z"/>
			<path class="st5" d="M145.8,61.8c-0.5-0.4-0.7-0.9-0.7-1.5c0-0.6,0.2-1,0.6-1.4c0.4-0.4,1-0.6,1.8-0.8c0.2,0,0.4,0,0.6-0.1
				c0.6-0.1,1-0.1,1.1-0.2c0.3-0.1,0.5-0.2,0.5-0.5c0-0.3-0.1-0.5-0.4-0.7c-0.3-0.2-0.6-0.3-1-0.3c-0.7,0-1.2,0.3-1.5,0.7
				c-0.1,0.1-0.2,0.2-0.2,0.2c-0.1,0-0.1,0-0.2,0c-0.3-0.2-0.4-0.3-0.7-0.5c-0.1,0-0.1-0.1-0.1-0.2c0,0,0-0.1,0-0.1
				c0.2-0.5,0.6-0.8,1.1-1.1c0.5-0.3,1.1-0.4,1.7-0.4c0.6,0,1.1,0.1,1.5,0.3c0.4,0.2,0.8,0.5,1,0.8c0.2,0.4,0.4,0.8,0.4,1.3
				c0,1.8,0.1,2.7,0.1,4.4c0,0.1,0,0.1-0.1,0.2s-0.1,0.1-0.2,0.1c-0.4,0-0.5,0-0.9,0c-0.1,0-0.1,0-0.2-0.1c-0.1,0-0.1-0.1-0.1-0.2
				c0-0.2,0-0.3,0-0.5c-0.6,0.6-1.3,0.9-2.2,0.9C146.8,62.4,146.2,62.2,145.8,61.8z M148.6,60.8c0.3-0.2,0.5-0.4,0.7-0.7
				c0.2-0.3,0.3-0.6,0.3-0.8c0-0.1,0-0.1,0-0.2c-0.4,0.1-0.6,0.1-1,0.2c-0.5,0.1-0.9,0.1-1,0.2c-0.7,0.1-1.1,0.4-1.1,0.9
				c0,0.3,0.1,0.5,0.3,0.6c0.2,0.1,0.5,0.2,0.8,0.2C148,61.1,148.3,61,148.6,60.8z"/>
			<path class="st5" d="M153.8,61.9c-0.1-0.1-0.2-0.2-0.2-0.4c-0.1-2.5-0.1-5-0.2-7.4c-0.5,0-0.7,0-1.2,0c-0.1,0-0.1,0-0.2-0.1
				c-0.1,0-0.1-0.1-0.1-0.2c0-0.4,0-0.5,0-0.9c0-0.1,0-0.1,0.1-0.2c0.1-0.1,0.1-0.1,0.2-0.1c0.9,0,1.3,0,2.2-0.1
				c0.2,0,0.3,0,0.4,0.1c0.1,0.1,0.2,0.2,0.2,0.4c0.1,2.5,0.2,5,0.2,7.4c0.5,0,0.7,0,1.2,0c0.1,0,0.1,0,0.2,0.1
				c0.1,0,0.1,0.1,0.1,0.2c0,0.4,0,0.5,0,0.9c0,0.1,0,0.1-0.1,0.2s-0.1,0.1-0.2,0.1c-0.9,0-1.3,0-2.2,0.1
				C154,62.1,153.9,62,153.8,61.9z"/>
			<path class="st5" d="M158.4,61.5c-0.5-0.4-0.7-0.9-0.8-1.5c0-0.6,0.2-1,0.6-1.4c0.4-0.4,1-0.7,1.7-0.8c0.2,0,0.4-0.1,0.5-0.1
				c0.6-0.1,1-0.2,1.1-0.2c0.3-0.1,0.5-0.2,0.5-0.5c0-0.3-0.2-0.5-0.4-0.7c-0.3-0.2-0.6-0.2-1-0.2c-0.7,0-1.2,0.3-1.5,0.8
				c-0.1,0.1-0.1,0.2-0.2,0.2c-0.1,0-0.1,0-0.2,0c-0.3-0.2-0.5-0.3-0.8-0.4c-0.1,0-0.1-0.1-0.1-0.2c0,0,0-0.1,0-0.1
				c0.2-0.5,0.6-0.8,1.1-1.1c0.5-0.3,1-0.4,1.7-0.4c0.6,0,1.1,0.1,1.5,0.2c0.4,0.2,0.8,0.5,1.1,0.8c0.3,0.4,0.4,0.8,0.4,1.3
				c0.1,1.8,0.1,2.7,0.2,4.4c0,0.1,0,0.1-0.1,0.2c-0.1,0.1-0.1,0.1-0.2,0.1c-0.4,0-0.5,0-0.9,0c-0.1,0-0.1,0-0.2-0.1
				c-0.1,0-0.1-0.1-0.1-0.2c0-0.2,0-0.3,0-0.5c-0.6,0.6-1.3,1-2.1,1C159.5,62,158.9,61.9,158.4,61.5z M161.3,60.4
				c0.3-0.2,0.5-0.4,0.7-0.7c0.2-0.3,0.3-0.6,0.2-0.9c0-0.1,0-0.1,0-0.2c-0.4,0.1-0.6,0.1-1,0.2c-0.5,0.1-0.9,0.1-1,0.2
				c-0.7,0.2-1.1,0.5-1,0.9c0,0.3,0.1,0.5,0.3,0.6c0.2,0.1,0.5,0.2,0.8,0.2C160.6,60.7,161,60.6,161.3,60.4z"/>
			<path class="st5" d="M166,61.1c-0.5-0.4-0.7-0.9-0.8-1.5c0-0.6,0.2-1,0.6-1.4c0.4-0.4,1-0.7,1.7-0.8c0.2,0,0.4-0.1,0.5-0.1
				c0.6-0.1,1-0.2,1.1-0.2c0.3-0.1,0.5-0.3,0.5-0.5c0-0.3-0.2-0.5-0.4-0.7c-0.3-0.2-0.6-0.2-1-0.2c-0.7,0-1.2,0.3-1.5,0.8
				c-0.1,0.1-0.1,0.2-0.2,0.2c-0.1,0-0.1,0-0.2,0c-0.3-0.2-0.5-0.3-0.8-0.4c-0.1,0-0.1-0.1-0.1-0.2c0,0,0-0.1,0-0.1
				c0.2-0.5,0.6-0.8,1.1-1.1c0.5-0.3,1-0.4,1.7-0.5c0.6,0,1.1,0,1.5,0.2c0.4,0.2,0.8,0.4,1.1,0.8c0.3,0.4,0.4,0.8,0.4,1.3
				c0.1,1.8,0.2,2.7,0.3,4.4c0,0.1,0,0.1-0.1,0.2c0,0.1-0.1,0.1-0.2,0.1c-0.4,0-0.5,0-0.9,0.1c-0.1,0-0.1,0-0.2-0.1
				c-0.1,0-0.1-0.1-0.1-0.2c0-0.2,0-0.3,0-0.5c-0.6,0.6-1.3,1-2.1,1C167.1,61.6,166.5,61.5,166,61.1z M168.9,60
				c0.3-0.2,0.5-0.4,0.7-0.7c0.2-0.3,0.2-0.6,0.2-0.9c0-0.1,0-0.1,0-0.2c-0.4,0.1-0.6,0.1-1,0.2c-0.5,0.1-0.9,0.2-1,0.2
				c-0.7,0.2-1.1,0.5-1,0.9c0,0.3,0.1,0.4,0.3,0.6c0.2,0.1,0.5,0.2,0.8,0.2C168.2,60.3,168.6,60.2,168.9,60z"/>
			<path class="st5" d="M173.5,61c-0.1,0-0.1-0.1-0.1-0.2c-0.2-2.2-0.3-4.3-0.5-6.5c0-0.1,0-0.1,0.1-0.2c0-0.1,0.1-0.1,0.2-0.1
				c0.4,0,0.6,0,1-0.1c0.1,0,0.1,0,0.2,0.1c0.1,0,0.1,0.1,0.1,0.2c0,0.3,0,0.4,0,0.6c0.2-0.4,0.5-0.7,0.8-0.9
				c0.3-0.2,0.7-0.3,1.1-0.3c0.5,0,0.9,0,1.3,0.2c0.4,0.2,0.7,0.5,1,0.8c0.2-0.4,0.5-0.7,0.9-1c0.4-0.3,0.8-0.4,1.3-0.4
				c0.8-0.1,1.4,0.1,1.9,0.5c0.5,0.4,0.8,1,0.8,1.8c0.2,1.7,0.2,2.6,0.4,4.3c0,0.1,0,0.1-0.1,0.2c0,0.1-0.1,0.1-0.2,0.1
				c-0.4,0-0.6,0.1-1,0.1c-0.1,0-0.1,0-0.2-0.1c-0.1,0-0.1-0.1-0.1-0.2c-0.2-1.7-0.2-2.5-0.4-4.1c0-0.4-0.2-0.8-0.4-1
				c-0.2-0.2-0.5-0.3-0.9-0.3c-0.5,0-0.9,0.2-1.2,0.6c-0.3,0.3-0.4,0.8-0.3,1.3c0.1,1.5,0.2,2.2,0.3,3.7c0,0.1,0,0.1-0.1,0.2
				c0,0.1-0.1,0.1-0.2,0.1c-0.4,0-0.6,0.1-1,0.1c-0.1,0-0.1,0-0.2-0.1c-0.1,0-0.1-0.1-0.1-0.2c-0.1-1.7-0.2-2.5-0.3-4.2
				c0-0.4-0.2-0.8-0.4-1c-0.2-0.2-0.5-0.3-0.9-0.3c-0.5,0-0.9,0.2-1.2,0.6c-0.3,0.3-0.4,0.8-0.4,1.3c0.1,1.5,0.2,2.2,0.3,3.7
				c0,0.1,0,0.1-0.1,0.2c0,0.1-0.1,0.1-0.2,0.1c-0.4,0-0.6,0-1,0.1C173.7,61,173.6,61,173.5,61z"/>
		</g>
	</g>
	<path class="st6" d="M70.7,56.9c4.3,0.1,8.7,0.6,11.1,1.1c-3.5-7.9-16.6-17.6-22.1-18.4c2,2.7,4,13.7,2.4,18c1.9-0.6,4.9-0.8,8-0.8
		v2c-3.4,0.1-7.7,0.2-13,0.2l-0.6,2.1h19.8c0.3-1.3,1.2-2.8,2.3-3.2c-1.8,0.4-4.4,0.6-8,0.8V56.9z"/>
	<path class="st6" d="M190.2,65.7c2.9-2.8,8.4-12.6,9.1-20.5c-1,0.1-4,0.2-5.6,1.6c0.8-1.9,3.6-2.3,4.7-2.4
		c-1.6-0.3-3.9-0.5-4.7-0.2c1.5-1.7,3.8-1,4.9-0.7c-0.3-0.4-2.3-1.5-1.7-3.4c0.7,0.4,1.5,2.1,2.1,2.4c0.2-2.1,0.5-2.8,1.5-3.4
		c-0.4,1.1-0.7,3.5-0.4,3.9c1.2-0.7,2.2-1.7,2.4-2.3c0.2,1.1-0.3,2.7-1.6,3.1c2.5-1,3,0.2,3.9,0.9c-1.8-0.4-2.5-0.5-3.7-0.2
		c2.5,0.1,3.2,1,3,2.1c-1.3-1.3-3.9-1.3-3.9-1.3c0.7,3.6-4.8,17-7.8,20.5C192.2,65.8,190.2,65.7,190.2,65.7z"/>
	<path class="st6" d="M194.5,63.4c3.7-2.8,11.6-13.3,13.6-22.4c-1.1-0.1-4.7-0.3-6.7,1c1.2-2.1,4.5-2.2,5.8-2.1
		c-1.8-0.6-4.4-1.2-5.4-1c2-1.7,4.5-0.6,5.8-0.1c-0.3-0.5-2.4-2.1-1.5-4.2c0.7,0.6,1.4,2.7,2,3.1c0.5-2.4,1-3.2,2.2-3.7
		c-0.6,1.2-1.3,3.9-1.1,4.4c1.5-0.6,2.8-1.6,3.1-2.3c0.1,1.3-0.8,3.1-2.3,3.3c3-0.8,3.5,0.6,4.4,1.7c-2-0.8-2.8-1-4.2-0.8
		c2.9,0.5,3.5,1.7,3.1,2.9c-1.3-1.8-4.3-2.2-4.3-2.2c0.3,4.2-8.1,19-12.2,22.5C196.8,63.9,194.5,63.4,194.5,63.4z"/>
</g>
</svg>
